<?xml version="1.0" encoding="utf-8"?>
<svg xmlns="http://www.w3.org/2000/svg" xmlns:xlink="http://www.w3.org/1999/xlink" width="600" height="400" viewBox="0 0 2400 1600">
<defs>
  <clipPath id="clip130">
    <rect x="0" y="0" width="2400" height="1600"/>
  </clipPath>
</defs>
<path clip-path="url(#clip130)" d="M0 1600 L2400 1600 L2400 0 L0 0  Z" fill="#ffffff" fill-rule="evenodd" fill-opacity="1"/>
<defs>
  <clipPath id="clip131">
    <rect x="480" y="0" width="1681" height="1600"/>
  </clipPath>
</defs>
<path clip-path="url(#clip130)" d="M257.69 1423.18 L2352.76 1423.18 L2352.76 123.472 L257.69 123.472  Z" fill="#ffffff" fill-rule="evenodd" fill-opacity="1"/>
<defs>
  <clipPath id="clip132">
    <rect x="257" y="123" width="2096" height="1301"/>
  </clipPath>
</defs>
<polyline clip-path="url(#clip132)" style="stroke:#000000; stroke-linecap:round; stroke-linejoin:round; stroke-width:2; stroke-opacity:0.1; fill:none" points="316.984,1423.18 316.984,123.472 "/>
<polyline clip-path="url(#clip132)" style="stroke:#000000; stroke-linecap:round; stroke-linejoin:round; stroke-width:2; stroke-opacity:0.1; fill:none" points="646.397,1423.18 646.397,123.472 "/>
<polyline clip-path="url(#clip132)" style="stroke:#000000; stroke-linecap:round; stroke-linejoin:round; stroke-width:2; stroke-opacity:0.1; fill:none" points="975.81,1423.18 975.81,123.472 "/>
<polyline clip-path="url(#clip132)" style="stroke:#000000; stroke-linecap:round; stroke-linejoin:round; stroke-width:2; stroke-opacity:0.1; fill:none" points="1305.22,1423.18 1305.22,123.472 "/>
<polyline clip-path="url(#clip132)" style="stroke:#000000; stroke-linecap:round; stroke-linejoin:round; stroke-width:2; stroke-opacity:0.1; fill:none" points="1634.64,1423.18 1634.64,123.472 "/>
<polyline clip-path="url(#clip132)" style="stroke:#000000; stroke-linecap:round; stroke-linejoin:round; stroke-width:2; stroke-opacity:0.1; fill:none" points="1964.05,1423.18 1964.05,123.472 "/>
<polyline clip-path="url(#clip132)" style="stroke:#000000; stroke-linecap:round; stroke-linejoin:round; stroke-width:2; stroke-opacity:0.1; fill:none" points="2293.46,1423.18 2293.46,123.472 "/>
<polyline clip-path="url(#clip132)" style="stroke:#000000; stroke-linecap:round; stroke-linejoin:round; stroke-width:2; stroke-opacity:0.1; fill:none" points="257.69,1403.04 2352.76,1403.04 "/>
<polyline clip-path="url(#clip132)" style="stroke:#000000; stroke-linecap:round; stroke-linejoin:round; stroke-width:2; stroke-opacity:0.1; fill:none" points="257.69,1189.99 2352.76,1189.99 "/>
<polyline clip-path="url(#clip132)" style="stroke:#000000; stroke-linecap:round; stroke-linejoin:round; stroke-width:2; stroke-opacity:0.1; fill:none" points="257.69,976.943 2352.76,976.943 "/>
<polyline clip-path="url(#clip132)" style="stroke:#000000; stroke-linecap:round; stroke-linejoin:round; stroke-width:2; stroke-opacity:0.1; fill:none" points="257.69,763.894 2352.76,763.894 "/>
<polyline clip-path="url(#clip132)" style="stroke:#000000; stroke-linecap:round; stroke-linejoin:round; stroke-width:2; stroke-opacity:0.1; fill:none" points="257.69,550.845 2352.76,550.845 "/>
<polyline clip-path="url(#clip132)" style="stroke:#000000; stroke-linecap:round; stroke-linejoin:round; stroke-width:2; stroke-opacity:0.1; fill:none" points="257.69,337.797 2352.76,337.797 "/>
<polyline clip-path="url(#clip132)" style="stroke:#000000; stroke-linecap:round; stroke-linejoin:round; stroke-width:2; stroke-opacity:0.1; fill:none" points="257.69,124.748 2352.76,124.748 "/>
<polyline clip-path="url(#clip130)" style="stroke:#000000; stroke-linecap:round; stroke-linejoin:round; stroke-width:4; stroke-opacity:1; fill:none" points="257.69,1423.18 2352.76,1423.18 "/>
<polyline clip-path="url(#clip130)" style="stroke:#000000; stroke-linecap:round; stroke-linejoin:round; stroke-width:4; stroke-opacity:1; fill:none" points="316.984,1423.18 316.984,1404.28 "/>
<polyline clip-path="url(#clip130)" style="stroke:#000000; stroke-linecap:round; stroke-linejoin:round; stroke-width:4; stroke-opacity:1; fill:none" points="646.397,1423.18 646.397,1404.28 "/>
<polyline clip-path="url(#clip130)" style="stroke:#000000; stroke-linecap:round; stroke-linejoin:round; stroke-width:4; stroke-opacity:1; fill:none" points="975.81,1423.18 975.81,1404.28 "/>
<polyline clip-path="url(#clip130)" style="stroke:#000000; stroke-linecap:round; stroke-linejoin:round; stroke-width:4; stroke-opacity:1; fill:none" points="1305.22,1423.18 1305.22,1404.28 "/>
<polyline clip-path="url(#clip130)" style="stroke:#000000; stroke-linecap:round; stroke-linejoin:round; stroke-width:4; stroke-opacity:1; fill:none" points="1634.64,1423.18 1634.64,1404.28 "/>
<polyline clip-path="url(#clip130)" style="stroke:#000000; stroke-linecap:round; stroke-linejoin:round; stroke-width:4; stroke-opacity:1; fill:none" points="1964.05,1423.18 1964.05,1404.28 "/>
<polyline clip-path="url(#clip130)" style="stroke:#000000; stroke-linecap:round; stroke-linejoin:round; stroke-width:4; stroke-opacity:1; fill:none" points="2293.46,1423.18 2293.46,1404.28 "/>
<path clip-path="url(#clip130)" d="M316.984 1454.1 Q313.373 1454.1 311.545 1457.66 Q309.739 1461.2 309.739 1468.33 Q309.739 1475.44 311.545 1479.01 Q313.373 1482.55 316.984 1482.55 Q320.619 1482.55 322.424 1479.01 Q324.253 1475.44 324.253 1468.33 Q324.253 1461.2 322.424 1457.66 Q320.619 1454.1 316.984 1454.1 M316.984 1450.39 Q322.795 1450.39 325.85 1455 Q328.929 1459.58 328.929 1468.33 Q328.929 1477.06 325.85 1481.67 Q322.795 1486.25 316.984 1486.25 Q311.174 1486.25 308.096 1481.67 Q305.04 1477.06 305.04 1468.33 Q305.04 1459.58 308.096 1455 Q311.174 1450.39 316.984 1450.39 Z" fill="#000000" fill-rule="nonzero" fill-opacity="1" /><path clip-path="url(#clip130)" d="M636.779 1481.64 L644.418 1481.64 L644.418 1455.28 L636.108 1456.95 L636.108 1452.69 L644.372 1451.02 L649.048 1451.02 L649.048 1481.64 L656.687 1481.64 L656.687 1485.58 L636.779 1485.58 L636.779 1481.64 Z" fill="#000000" fill-rule="nonzero" fill-opacity="1" /><path clip-path="url(#clip130)" d="M970.463 1481.64 L986.782 1481.64 L986.782 1485.58 L964.838 1485.58 L964.838 1481.64 Q967.5 1478.89 972.083 1474.26 Q976.69 1469.61 977.87 1468.27 Q980.116 1465.74 980.995 1464.01 Q981.898 1462.25 981.898 1460.56 Q981.898 1457.8 979.954 1456.07 Q978.032 1454.33 974.931 1454.33 Q972.731 1454.33 970.278 1455.09 Q967.847 1455.86 965.069 1457.41 L965.069 1452.69 Q967.894 1451.55 970.347 1450.97 Q972.801 1450.39 974.838 1450.39 Q980.208 1450.39 983.403 1453.08 Q986.597 1455.77 986.597 1460.26 Q986.597 1462.39 985.787 1464.31 Q985 1466.2 982.893 1468.8 Q982.315 1469.47 979.213 1472.69 Q976.111 1475.88 970.463 1481.64 Z" fill="#000000" fill-rule="nonzero" fill-opacity="1" /><path clip-path="url(#clip130)" d="M1309.47 1466.95 Q1312.83 1467.66 1314.7 1469.93 Q1316.6 1472.2 1316.6 1475.53 Q1316.6 1480.65 1313.08 1483.45 Q1309.56 1486.25 1303.08 1486.25 Q1300.91 1486.25 1298.59 1485.81 Q1296.3 1485.39 1293.85 1484.54 L1293.85 1480.02 Q1295.79 1481.16 1298.11 1481.74 Q1300.42 1482.32 1302.94 1482.32 Q1307.34 1482.32 1309.63 1480.58 Q1311.95 1478.84 1311.95 1475.53 Q1311.95 1472.48 1309.79 1470.77 Q1307.67 1469.03 1303.85 1469.03 L1299.82 1469.03 L1299.82 1465.19 L1304.03 1465.19 Q1307.48 1465.19 1309.31 1463.82 Q1311.14 1462.43 1311.14 1459.84 Q1311.14 1457.18 1309.24 1455.77 Q1307.36 1454.33 1303.85 1454.33 Q1301.92 1454.33 1299.73 1454.75 Q1297.53 1455.16 1294.89 1456.04 L1294.89 1451.88 Q1297.55 1451.14 1299.86 1450.77 Q1302.2 1450.39 1304.26 1450.39 Q1309.59 1450.39 1312.69 1452.83 Q1315.79 1455.23 1315.79 1459.35 Q1315.79 1462.22 1314.15 1464.21 Q1312.5 1466.18 1309.47 1466.95 Z" fill="#000000" fill-rule="nonzero" fill-opacity="1" /><path clip-path="url(#clip130)" d="M1637.65 1455.09 L1625.84 1473.54 L1637.65 1473.54 L1637.65 1455.09 M1636.42 1451.02 L1642.3 1451.02 L1642.3 1473.54 L1647.23 1473.54 L1647.23 1477.43 L1642.3 1477.43 L1642.3 1485.58 L1637.65 1485.58 L1637.65 1477.43 L1622.04 1477.43 L1622.04 1472.92 L1636.42 1451.02 Z" fill="#000000" fill-rule="nonzero" fill-opacity="1" /><path clip-path="url(#clip130)" d="M1954.33 1451.02 L1972.68 1451.02 L1972.68 1454.96 L1958.61 1454.96 L1958.61 1463.43 Q1959.63 1463.08 1960.65 1462.92 Q1961.66 1462.73 1962.68 1462.73 Q1968.47 1462.73 1971.85 1465.9 Q1975.23 1469.08 1975.23 1474.49 Q1975.23 1480.07 1971.76 1483.17 Q1968.28 1486.25 1961.97 1486.25 Q1959.79 1486.25 1957.52 1485.88 Q1955.28 1485.51 1952.87 1484.77 L1952.87 1480.07 Q1954.95 1481.2 1957.17 1481.76 Q1959.4 1482.32 1961.87 1482.32 Q1965.88 1482.32 1968.22 1480.21 Q1970.55 1478.1 1970.55 1474.49 Q1970.55 1470.88 1968.22 1468.77 Q1965.88 1466.67 1961.87 1466.67 Q1960 1466.67 1958.12 1467.08 Q1956.27 1467.5 1954.33 1468.38 L1954.33 1451.02 Z" fill="#000000" fill-rule="nonzero" fill-opacity="1" /><path clip-path="url(#clip130)" d="M2293.87 1466.44 Q2290.72 1466.44 2288.87 1468.59 Q2287.04 1470.74 2287.04 1474.49 Q2287.04 1478.22 2288.87 1480.39 Q2290.72 1482.55 2293.87 1482.55 Q2297.01 1482.55 2298.84 1480.39 Q2300.7 1478.22 2300.7 1474.49 Q2300.7 1470.74 2298.84 1468.59 Q2297.01 1466.44 2293.87 1466.44 M2303.15 1451.78 L2303.15 1456.04 Q2301.39 1455.21 2299.58 1454.77 Q2297.8 1454.33 2296.04 1454.33 Q2291.41 1454.33 2288.96 1457.45 Q2286.53 1460.58 2286.18 1466.9 Q2287.55 1464.89 2289.61 1463.82 Q2291.67 1462.73 2294.14 1462.73 Q2299.35 1462.73 2302.36 1465.9 Q2305.39 1469.05 2305.39 1474.49 Q2305.39 1479.82 2302.25 1483.03 Q2299.1 1486.25 2293.87 1486.25 Q2287.87 1486.25 2284.7 1481.67 Q2281.53 1477.06 2281.53 1468.33 Q2281.53 1460.14 2285.42 1455.28 Q2289.31 1450.39 2295.86 1450.39 Q2297.62 1450.39 2299.4 1450.74 Q2301.2 1451.09 2303.15 1451.78 Z" fill="#000000" fill-rule="nonzero" fill-opacity="1" /><path clip-path="url(#clip130)" d="M899.552 1520.52 L908.21 1520.52 L929.28 1560.28 L929.28 1520.52 L935.519 1520.52 L935.519 1568.04 L926.861 1568.04 L905.791 1528.29 L905.791 1568.04 L899.552 1568.04 L899.552 1520.52 Z" fill="#000000" fill-rule="nonzero" fill-opacity="1" /><path clip-path="url(#clip130)" d="M947.454 1553.98 L947.454 1532.4 L953.311 1532.4 L953.311 1553.75 Q953.311 1558.81 955.284 1561.36 Q957.258 1563.87 961.204 1563.87 Q965.947 1563.87 968.684 1560.85 Q971.453 1557.83 971.453 1552.61 L971.453 1532.4 L977.31 1532.4 L977.31 1568.04 L971.453 1568.04 L971.453 1562.57 Q969.321 1565.82 966.488 1567.41 Q963.687 1568.97 959.963 1568.97 Q953.82 1568.97 950.637 1565.15 Q947.454 1561.33 947.454 1553.98 M962.191 1531.54 L962.191 1531.54 Z" fill="#000000" fill-rule="nonzero" fill-opacity="1" /><path clip-path="url(#clip130)" d="M1017.13 1539.24 Q1019.32 1535.29 1022.38 1533.41 Q1025.43 1531.54 1029.57 1531.54 Q1035.14 1531.54 1038.17 1535.45 Q1041.19 1539.33 1041.19 1546.53 L1041.19 1568.04 L1035.3 1568.04 L1035.3 1546.72 Q1035.3 1541.59 1033.49 1539.11 Q1031.67 1536.63 1027.95 1536.63 Q1023.4 1536.63 1020.76 1539.65 Q1018.11 1542.68 1018.11 1547.9 L1018.11 1568.04 L1012.23 1568.04 L1012.23 1546.72 Q1012.23 1541.56 1010.41 1539.11 Q1008.6 1536.63 1004.81 1536.63 Q1000.32 1536.63 997.68 1539.68 Q995.038 1542.71 995.038 1547.9 L995.038 1568.04 L989.15 1568.04 L989.15 1532.4 L995.038 1532.4 L995.038 1537.93 Q997.043 1534.66 999.844 1533.1 Q1002.65 1531.54 1006.5 1531.54 Q1010.38 1531.54 1013.08 1533.51 Q1015.82 1535.48 1017.13 1539.24 Z" fill="#000000" fill-rule="nonzero" fill-opacity="1" /><path clip-path="url(#clip130)" d="M1078.46 1550.25 Q1078.46 1543.79 1075.79 1540.13 Q1073.15 1536.44 1068.5 1536.44 Q1063.85 1536.44 1061.18 1540.13 Q1058.54 1543.79 1058.54 1550.25 Q1058.54 1556.71 1061.18 1560.4 Q1063.85 1564.07 1068.5 1564.07 Q1073.15 1564.07 1075.79 1560.4 Q1078.46 1556.71 1078.46 1550.25 M1058.54 1537.81 Q1060.38 1534.62 1063.18 1533.1 Q1066.02 1531.54 1069.93 1531.54 Q1076.42 1531.54 1080.47 1536.69 Q1084.54 1541.85 1084.54 1550.25 Q1084.54 1558.65 1080.47 1563.81 Q1076.42 1568.97 1069.93 1568.97 Q1066.02 1568.97 1063.18 1567.44 Q1060.38 1565.88 1058.54 1562.7 L1058.54 1568.04 L1052.65 1568.04 L1052.65 1518.52 L1058.54 1518.52 L1058.54 1537.81 Z" fill="#000000" fill-rule="nonzero" fill-opacity="1" /><path clip-path="url(#clip130)" d="M1124.74 1548.76 L1124.74 1551.62 L1097.81 1551.62 Q1098.19 1557.67 1101.44 1560.85 Q1104.72 1564 1110.54 1564 Q1113.92 1564 1117.07 1563.17 Q1120.25 1562.35 1123.37 1560.69 L1123.37 1566.23 Q1120.22 1567.57 1116.91 1568.27 Q1113.6 1568.97 1110.19 1568.97 Q1101.66 1568.97 1096.67 1564 Q1091.7 1559.04 1091.7 1550.57 Q1091.7 1541.82 1096.41 1536.69 Q1101.15 1531.54 1109.18 1531.54 Q1116.37 1531.54 1120.54 1536.18 Q1124.74 1540.8 1124.74 1548.76 M1118.88 1547.04 Q1118.82 1542.23 1116.18 1539.37 Q1113.57 1536.5 1109.24 1536.5 Q1104.34 1536.5 1101.38 1539.27 Q1098.45 1542.04 1098 1547.07 L1118.88 1547.04 Z" fill="#000000" fill-rule="nonzero" fill-opacity="1" /><path clip-path="url(#clip130)" d="M1155.01 1537.87 Q1154.02 1537.3 1152.84 1537.04 Q1151.7 1536.76 1150.3 1536.76 Q1145.33 1536.76 1142.66 1540 Q1140.02 1543.22 1140.02 1549.27 L1140.02 1568.04 L1134.13 1568.04 L1134.13 1532.4 L1140.02 1532.4 L1140.02 1537.93 Q1141.86 1534.69 1144.82 1533.13 Q1147.78 1531.54 1152.02 1531.54 Q1152.62 1531.54 1153.35 1531.63 Q1154.09 1531.7 1154.98 1531.85 L1155.01 1537.87 Z" fill="#000000" fill-rule="nonzero" fill-opacity="1" /><path clip-path="url(#clip130)" d="M1195.69 1536.5 Q1190.97 1536.5 1188.24 1540.19 Q1185.5 1543.85 1185.5 1550.25 Q1185.5 1556.65 1188.21 1560.34 Q1190.94 1564 1195.69 1564 Q1200.36 1564 1203.1 1560.31 Q1205.84 1556.62 1205.84 1550.25 Q1205.84 1543.92 1203.1 1540.23 Q1200.36 1536.5 1195.69 1536.5 M1195.69 1531.54 Q1203.32 1531.54 1207.68 1536.5 Q1212.04 1541.47 1212.04 1550.25 Q1212.04 1559 1207.68 1564 Q1203.32 1568.97 1195.69 1568.97 Q1188.01 1568.97 1183.65 1564 Q1179.33 1559 1179.33 1550.25 Q1179.33 1541.47 1183.65 1536.5 Q1188.01 1531.54 1195.69 1531.54 Z" fill="#000000" fill-rule="nonzero" fill-opacity="1" /><path clip-path="url(#clip130)" d="M1239.8 1518.52 L1239.8 1523.39 L1234.2 1523.39 Q1231.05 1523.39 1229.81 1524.66 Q1228.6 1525.93 1228.6 1529.24 L1228.6 1532.4 L1238.24 1532.4 L1238.24 1536.95 L1228.6 1536.95 L1228.6 1568.04 L1222.71 1568.04 L1222.71 1536.95 L1217.11 1536.95 L1217.11 1532.4 L1222.71 1532.4 L1222.71 1529.91 Q1222.71 1523.96 1225.48 1521.26 Q1228.25 1518.52 1234.26 1518.52 L1239.8 1518.52 Z" fill="#000000" fill-rule="nonzero" fill-opacity="1" /><path clip-path="url(#clip130)" d="M1291.01 1550.25 Q1291.01 1543.79 1288.34 1540.13 Q1285.7 1536.44 1281.05 1536.44 Q1276.4 1536.44 1273.73 1540.13 Q1271.09 1543.79 1271.09 1550.25 Q1271.09 1556.71 1273.73 1560.4 Q1276.4 1564.07 1281.05 1564.07 Q1285.7 1564.07 1288.34 1560.4 Q1291.01 1556.71 1291.01 1550.25 M1271.09 1537.81 Q1272.93 1534.62 1275.73 1533.1 Q1278.57 1531.54 1282.48 1531.54 Q1288.97 1531.54 1293.02 1536.69 Q1297.09 1541.85 1297.09 1550.25 Q1297.09 1558.65 1293.02 1563.81 Q1288.97 1568.97 1282.48 1568.97 Q1278.57 1568.97 1275.73 1567.44 Q1272.93 1565.88 1271.09 1562.7 L1271.09 1568.04 L1265.2 1568.04 L1265.2 1518.52 L1271.09 1518.52 L1271.09 1537.81 Z" fill="#000000" fill-rule="nonzero" fill-opacity="1" /><path clip-path="url(#clip130)" d="M1306.8 1532.4 L1312.65 1532.4 L1312.65 1568.04 L1306.8 1568.04 L1306.8 1532.4 M1306.8 1518.52 L1312.65 1518.52 L1312.65 1525.93 L1306.8 1525.93 L1306.8 1518.52 Z" fill="#000000" fill-rule="nonzero" fill-opacity="1" /><path clip-path="url(#clip130)" d="M1330.7 1522.27 L1330.7 1532.4 L1342.76 1532.4 L1342.76 1536.95 L1330.7 1536.95 L1330.7 1556.3 Q1330.7 1560.66 1331.88 1561.9 Q1333.09 1563.14 1336.75 1563.14 L1342.76 1563.14 L1342.76 1568.04 L1336.75 1568.04 Q1329.97 1568.04 1327.39 1565.53 Q1324.81 1562.98 1324.81 1556.3 L1324.81 1536.95 L1320.52 1536.95 L1320.52 1532.4 L1324.81 1532.4 L1324.81 1522.27 L1330.7 1522.27 Z" fill="#000000" fill-rule="nonzero" fill-opacity="1" /><path clip-path="url(#clip130)" d="M1373.19 1533.45 L1373.19 1538.98 Q1370.71 1537.71 1368.04 1537.07 Q1365.36 1536.44 1362.5 1536.44 Q1358.14 1536.44 1355.94 1537.77 Q1353.78 1539.11 1353.78 1541.79 Q1353.78 1543.82 1355.34 1545 Q1356.9 1546.15 1361.61 1547.2 L1363.61 1547.64 Q1369.85 1548.98 1372.46 1551.43 Q1375.1 1553.85 1375.1 1558.21 Q1375.1 1563.17 1371.16 1566.07 Q1367.24 1568.97 1360.37 1568.97 Q1357.5 1568.97 1354.38 1568.39 Q1351.29 1567.85 1347.86 1566.74 L1347.86 1560.69 Q1351.1 1562.38 1354.25 1563.24 Q1357.41 1564.07 1360.49 1564.07 Q1364.63 1564.07 1366.86 1562.66 Q1369.09 1561.23 1369.09 1558.65 Q1369.09 1556.27 1367.46 1554.99 Q1365.87 1553.72 1360.43 1552.54 L1358.39 1552.07 Q1352.95 1550.92 1350.53 1548.56 Q1348.11 1546.18 1348.11 1542.04 Q1348.11 1537.01 1351.68 1534.27 Q1355.24 1531.54 1361.8 1531.54 Q1365.04 1531.54 1367.91 1532.01 Q1370.77 1532.49 1373.19 1533.45 Z" fill="#000000" fill-rule="nonzero" fill-opacity="1" /><path clip-path="url(#clip130)" d="M1410.94 1522.27 L1410.94 1532.4 L1423 1532.4 L1423 1536.95 L1410.94 1536.95 L1410.94 1556.3 Q1410.94 1560.66 1412.12 1561.9 Q1413.33 1563.14 1416.99 1563.14 L1423 1563.14 L1423 1568.04 L1416.99 1568.04 Q1410.21 1568.04 1407.63 1565.53 Q1405.05 1562.98 1405.05 1556.3 L1405.05 1536.95 L1400.76 1536.95 L1400.76 1532.4 L1405.05 1532.4 L1405.05 1522.27 L1410.94 1522.27 Z" fill="#000000" fill-rule="nonzero" fill-opacity="1" /><path clip-path="url(#clip130)" d="M1451.36 1537.87 Q1450.38 1537.3 1449.2 1537.04 Q1448.05 1536.76 1446.65 1536.76 Q1441.69 1536.76 1439.01 1540 Q1436.37 1543.22 1436.37 1549.27 L1436.37 1568.04 L1430.48 1568.04 L1430.48 1532.4 L1436.37 1532.4 L1436.37 1537.93 Q1438.22 1534.69 1441.18 1533.13 Q1444.14 1531.54 1448.37 1531.54 Q1448.98 1531.54 1449.71 1531.63 Q1450.44 1531.7 1451.33 1531.85 L1451.36 1537.87 Z" fill="#000000" fill-rule="nonzero" fill-opacity="1" /><path clip-path="url(#clip130)" d="M1456.9 1553.98 L1456.9 1532.4 L1462.76 1532.4 L1462.76 1553.75 Q1462.76 1558.81 1464.73 1561.36 Q1466.71 1563.87 1470.65 1563.87 Q1475.39 1563.87 1478.13 1560.85 Q1480.9 1557.83 1480.9 1552.61 L1480.9 1532.4 L1486.76 1532.4 L1486.76 1568.04 L1480.9 1568.04 L1480.9 1562.57 Q1478.77 1565.82 1475.94 1567.41 Q1473.13 1568.97 1469.41 1568.97 Q1463.27 1568.97 1460.08 1565.15 Q1456.9 1561.33 1456.9 1553.98 M1471.64 1531.54 L1471.64 1531.54 Z" fill="#000000" fill-rule="nonzero" fill-opacity="1" /><path clip-path="url(#clip130)" d="M1528.45 1546.53 L1528.45 1568.04 L1522.6 1568.04 L1522.6 1546.72 Q1522.6 1541.66 1520.62 1539.14 Q1518.65 1536.63 1514.7 1536.63 Q1509.96 1536.63 1507.22 1539.65 Q1504.49 1542.68 1504.49 1547.9 L1504.49 1568.04 L1498.6 1568.04 L1498.6 1532.4 L1504.49 1532.4 L1504.49 1537.93 Q1506.59 1534.72 1509.42 1533.13 Q1512.28 1531.54 1516.01 1531.54 Q1522.15 1531.54 1525.3 1535.36 Q1528.45 1539.14 1528.45 1546.53 Z" fill="#000000" fill-rule="nonzero" fill-opacity="1" /><path clip-path="url(#clip130)" d="M1565.79 1533.76 L1565.79 1539.24 Q1563.3 1537.87 1560.79 1537.2 Q1558.31 1536.5 1555.76 1536.5 Q1550.06 1536.5 1546.91 1540.13 Q1543.76 1543.73 1543.76 1550.25 Q1543.76 1556.78 1546.91 1560.4 Q1550.06 1564 1555.76 1564 Q1558.31 1564 1560.79 1563.33 Q1563.3 1562.63 1565.79 1561.26 L1565.79 1566.68 Q1563.34 1567.82 1560.69 1568.39 Q1558.08 1568.97 1555.12 1568.97 Q1547.07 1568.97 1542.33 1563.91 Q1537.59 1558.85 1537.59 1550.25 Q1537.59 1541.53 1542.36 1536.53 Q1547.17 1531.54 1555.51 1531.54 Q1558.21 1531.54 1560.79 1532.11 Q1563.37 1532.65 1565.79 1533.76 Z" fill="#000000" fill-rule="nonzero" fill-opacity="1" /><path clip-path="url(#clip130)" d="M1592.17 1550.12 Q1585.08 1550.12 1582.34 1551.75 Q1579.6 1553.37 1579.6 1557.29 Q1579.6 1560.4 1581.64 1562.25 Q1583.71 1564.07 1587.24 1564.07 Q1592.11 1564.07 1595.04 1560.63 Q1598 1557.16 1598 1551.43 L1598 1550.12 L1592.17 1550.12 M1603.85 1547.71 L1603.85 1568.04 L1598 1568.04 L1598 1562.63 Q1595.99 1565.88 1593 1567.44 Q1590.01 1568.97 1585.68 1568.97 Q1580.21 1568.97 1576.96 1565.91 Q1573.74 1562.82 1573.74 1557.67 Q1573.74 1551.65 1577.75 1548.6 Q1581.8 1545.54 1589.79 1545.54 L1598 1545.54 L1598 1544.97 Q1598 1540.93 1595.32 1538.73 Q1592.68 1536.5 1587.88 1536.5 Q1584.82 1536.5 1581.92 1537.23 Q1579.03 1537.97 1576.35 1539.43 L1576.35 1534.02 Q1579.57 1532.78 1582.59 1532.17 Q1585.62 1531.54 1588.48 1531.54 Q1596.22 1531.54 1600.03 1535.55 Q1603.85 1539.56 1603.85 1547.71 Z" fill="#000000" fill-rule="nonzero" fill-opacity="1" /><path clip-path="url(#clip130)" d="M1621.71 1522.27 L1621.71 1532.4 L1633.77 1532.4 L1633.77 1536.95 L1621.71 1536.95 L1621.71 1556.3 Q1621.71 1560.66 1622.89 1561.9 Q1624.1 1563.14 1627.76 1563.14 L1633.77 1563.14 L1633.77 1568.04 L1627.76 1568.04 Q1620.98 1568.04 1618.4 1565.53 Q1615.82 1562.98 1615.82 1556.3 L1615.82 1536.95 L1611.52 1536.95 L1611.52 1532.4 L1615.82 1532.4 L1615.82 1522.27 L1621.71 1522.27 Z" fill="#000000" fill-rule="nonzero" fill-opacity="1" /><path clip-path="url(#clip130)" d="M1671.97 1548.76 L1671.97 1551.62 L1645.04 1551.62 Q1645.42 1557.67 1648.67 1560.85 Q1651.95 1564 1657.77 1564 Q1661.15 1564 1664.3 1563.17 Q1667.48 1562.35 1670.6 1560.69 L1670.6 1566.23 Q1667.45 1567.57 1664.14 1568.27 Q1660.83 1568.97 1657.42 1568.97 Q1648.89 1568.97 1643.89 1564 Q1638.93 1559.04 1638.93 1550.57 Q1638.93 1541.82 1643.64 1536.69 Q1648.38 1531.54 1656.4 1531.54 Q1663.6 1531.54 1667.77 1536.18 Q1671.97 1540.8 1671.97 1548.76 M1666.11 1547.04 Q1666.05 1542.23 1663.41 1539.37 Q1660.8 1536.5 1656.47 1536.5 Q1651.57 1536.5 1648.61 1539.27 Q1645.68 1542.04 1645.23 1547.07 L1666.11 1547.04 Z" fill="#000000" fill-rule="nonzero" fill-opacity="1" /><path clip-path="url(#clip130)" d="M1705.04 1537.81 L1705.04 1518.52 L1710.89 1518.52 L1710.89 1568.04 L1705.04 1568.04 L1705.04 1562.7 Q1703.19 1565.88 1700.36 1567.44 Q1697.56 1568.97 1693.61 1568.97 Q1687.15 1568.97 1683.08 1563.81 Q1679.03 1558.65 1679.03 1550.25 Q1679.03 1541.85 1683.08 1536.69 Q1687.15 1531.54 1693.61 1531.54 Q1697.56 1531.54 1700.36 1533.1 Q1703.19 1534.62 1705.04 1537.81 M1685.08 1550.25 Q1685.08 1556.71 1687.72 1560.4 Q1690.4 1564.07 1695.04 1564.07 Q1699.69 1564.07 1702.36 1560.4 Q1705.04 1556.71 1705.04 1550.25 Q1705.04 1543.79 1702.36 1540.13 Q1699.69 1536.44 1695.04 1536.44 Q1690.4 1536.44 1687.72 1540.13 Q1685.08 1543.79 1685.08 1550.25 Z" fill="#000000" fill-rule="nonzero" fill-opacity="1" /><polyline clip-path="url(#clip130)" style="stroke:#000000; stroke-linecap:round; stroke-linejoin:round; stroke-width:4; stroke-opacity:1; fill:none" points="257.69,1423.18 257.69,123.472 "/>
<polyline clip-path="url(#clip130)" style="stroke:#000000; stroke-linecap:round; stroke-linejoin:round; stroke-width:4; stroke-opacity:1; fill:none" points="257.69,1403.04 276.588,1403.04 "/>
<polyline clip-path="url(#clip130)" style="stroke:#000000; stroke-linecap:round; stroke-linejoin:round; stroke-width:4; stroke-opacity:1; fill:none" points="257.69,1189.99 276.588,1189.99 "/>
<polyline clip-path="url(#clip130)" style="stroke:#000000; stroke-linecap:round; stroke-linejoin:round; stroke-width:4; stroke-opacity:1; fill:none" points="257.69,976.943 276.588,976.943 "/>
<polyline clip-path="url(#clip130)" style="stroke:#000000; stroke-linecap:round; stroke-linejoin:round; stroke-width:4; stroke-opacity:1; fill:none" points="257.69,763.894 276.588,763.894 "/>
<polyline clip-path="url(#clip130)" style="stroke:#000000; stroke-linecap:round; stroke-linejoin:round; stroke-width:4; stroke-opacity:1; fill:none" points="257.69,550.845 276.588,550.845 "/>
<polyline clip-path="url(#clip130)" style="stroke:#000000; stroke-linecap:round; stroke-linejoin:round; stroke-width:4; stroke-opacity:1; fill:none" points="257.69,337.797 276.588,337.797 "/>
<polyline clip-path="url(#clip130)" style="stroke:#000000; stroke-linecap:round; stroke-linejoin:round; stroke-width:4; stroke-opacity:1; fill:none" points="257.69,124.748 276.588,124.748 "/>
<path clip-path="url(#clip130)" d="M115.742 1403.49 L145.417 1403.49 L145.417 1407.43 L115.742 1407.43 L115.742 1403.49 Z" fill="#000000" fill-rule="nonzero" fill-opacity="1" /><path clip-path="url(#clip130)" d="M165.51 1388.84 Q161.899 1388.84 160.07 1392.4 Q158.265 1395.95 158.265 1403.07 Q158.265 1410.18 160.07 1413.75 Q161.899 1417.29 165.51 1417.29 Q169.144 1417.29 170.95 1413.75 Q172.778 1410.18 172.778 1403.07 Q172.778 1395.95 170.95 1392.4 Q169.144 1388.84 165.51 1388.84 M165.51 1385.14 Q171.32 1385.14 174.376 1389.74 Q177.454 1394.32 177.454 1403.07 Q177.454 1411.8 174.376 1416.41 Q171.32 1420.99 165.51 1420.99 Q159.7 1420.99 156.621 1416.41 Q153.566 1411.8 153.566 1403.07 Q153.566 1394.32 156.621 1389.74 Q159.7 1385.14 165.51 1385.14 Z" fill="#000000" fill-rule="nonzero" fill-opacity="1" /><path clip-path="url(#clip130)" d="M185.672 1414.44 L190.556 1414.44 L190.556 1420.32 L185.672 1420.32 L185.672 1414.44 Z" fill="#000000" fill-rule="nonzero" fill-opacity="1" /><path clip-path="url(#clip130)" d="M200.787 1385.76 L219.144 1385.76 L219.144 1389.7 L205.07 1389.7 L205.07 1398.17 Q206.088 1397.82 207.107 1397.66 Q208.125 1397.47 209.144 1397.47 Q214.931 1397.47 218.311 1400.64 Q221.69 1403.82 221.69 1409.23 Q221.69 1414.81 218.218 1417.91 Q214.746 1420.99 208.426 1420.99 Q206.25 1420.99 203.982 1420.62 Q201.737 1420.25 199.329 1419.51 L199.329 1414.81 Q201.412 1415.95 203.635 1416.5 Q205.857 1417.06 208.334 1417.06 Q212.338 1417.06 214.676 1414.95 Q217.014 1412.84 217.014 1409.23 Q217.014 1405.62 214.676 1403.51 Q212.338 1401.41 208.334 1401.41 Q206.459 1401.41 204.584 1401.82 Q202.732 1402.24 200.787 1403.12 L200.787 1385.76 Z" fill="#000000" fill-rule="nonzero" fill-opacity="1" /><path clip-path="url(#clip130)" d="M114.26 1190.44 L143.936 1190.44 L143.936 1194.38 L114.26 1194.38 L114.26 1190.44 Z" fill="#000000" fill-rule="nonzero" fill-opacity="1" /><path clip-path="url(#clip130)" d="M164.028 1175.79 Q160.417 1175.79 158.589 1179.35 Q156.783 1182.9 156.783 1190.03 Q156.783 1197.13 158.589 1200.7 Q160.417 1204.24 164.028 1204.24 Q167.663 1204.24 169.468 1200.7 Q171.297 1197.13 171.297 1190.03 Q171.297 1182.9 169.468 1179.35 Q167.663 1175.79 164.028 1175.79 M164.028 1172.09 Q169.839 1172.09 172.894 1176.69 Q175.973 1181.28 175.973 1190.03 Q175.973 1198.75 172.894 1203.36 Q169.839 1207.94 164.028 1207.94 Q158.218 1207.94 155.14 1203.36 Q152.084 1198.75 152.084 1190.03 Q152.084 1181.28 155.14 1176.69 Q158.218 1172.09 164.028 1172.09 Z" fill="#000000" fill-rule="nonzero" fill-opacity="1" /><path clip-path="url(#clip130)" d="M184.19 1201.39 L189.075 1201.39 L189.075 1207.27 L184.19 1207.27 L184.19 1201.39 Z" fill="#000000" fill-rule="nonzero" fill-opacity="1" /><path clip-path="url(#clip130)" d="M212.107 1176.79 L200.301 1195.23 L212.107 1195.23 L212.107 1176.79 M210.88 1172.71 L216.76 1172.71 L216.76 1195.23 L221.69 1195.23 L221.69 1199.12 L216.76 1199.12 L216.76 1207.27 L212.107 1207.27 L212.107 1199.12 L196.505 1199.12 L196.505 1194.61 L210.88 1172.71 Z" fill="#000000" fill-rule="nonzero" fill-opacity="1" /><path clip-path="url(#clip130)" d="M115.394 977.394 L145.07 977.394 L145.07 981.329 L115.394 981.329 L115.394 977.394 Z" fill="#000000" fill-rule="nonzero" fill-opacity="1" /><path clip-path="url(#clip130)" d="M165.163 962.741 Q161.552 962.741 159.723 966.306 Q157.917 969.848 157.917 976.978 Q157.917 984.084 159.723 987.649 Q161.552 991.19 165.163 991.19 Q168.797 991.19 170.602 987.649 Q172.431 984.084 172.431 976.978 Q172.431 969.848 170.602 966.306 Q168.797 962.741 165.163 962.741 M165.163 959.038 Q170.973 959.038 174.028 963.644 Q177.107 968.228 177.107 976.978 Q177.107 985.704 174.028 990.311 Q170.973 994.894 165.163 994.894 Q159.353 994.894 156.274 990.311 Q153.218 985.704 153.218 976.978 Q153.218 968.228 156.274 963.644 Q159.353 959.038 165.163 959.038 Z" fill="#000000" fill-rule="nonzero" fill-opacity="1" /><path clip-path="url(#clip130)" d="M185.325 988.343 L190.209 988.343 L190.209 994.223 L185.325 994.223 L185.325 988.343 Z" fill="#000000" fill-rule="nonzero" fill-opacity="1" /><path clip-path="url(#clip130)" d="M214.561 975.589 Q217.917 976.306 219.792 978.575 Q221.69 980.843 221.69 984.177 Q221.69 989.292 218.172 992.093 Q214.653 994.894 208.172 994.894 Q205.996 994.894 203.681 994.454 Q201.389 994.038 198.936 993.181 L198.936 988.667 Q200.88 989.802 203.195 990.38 Q205.51 990.959 208.033 990.959 Q212.431 990.959 214.723 989.223 Q217.037 987.487 217.037 984.177 Q217.037 981.121 214.885 979.408 Q212.755 977.672 208.936 977.672 L204.908 977.672 L204.908 973.829 L209.121 973.829 Q212.57 973.829 214.399 972.464 Q216.227 971.075 216.227 968.482 Q216.227 965.82 214.329 964.408 Q212.454 962.973 208.936 962.973 Q207.014 962.973 204.815 963.39 Q202.616 963.806 199.977 964.686 L199.977 960.519 Q202.639 959.779 204.954 959.408 Q207.292 959.038 209.352 959.038 Q214.676 959.038 217.778 961.468 Q220.88 963.876 220.88 967.996 Q220.88 970.866 219.236 972.857 Q217.593 974.825 214.561 975.589 Z" fill="#000000" fill-rule="nonzero" fill-opacity="1" /><path clip-path="url(#clip130)" d="M116.343 764.346 L146.019 764.346 L146.019 768.281 L116.343 768.281 L116.343 764.346 Z" fill="#000000" fill-rule="nonzero" fill-opacity="1" /><path clip-path="url(#clip130)" d="M166.112 749.693 Q162.501 749.693 160.672 753.258 Q158.866 756.799 158.866 763.929 Q158.866 771.035 160.672 774.6 Q162.501 778.142 166.112 778.142 Q169.746 778.142 171.552 774.6 Q173.38 771.035 173.38 763.929 Q173.38 756.799 171.552 753.258 Q169.746 749.693 166.112 749.693 M166.112 745.989 Q171.922 745.989 174.977 750.596 Q178.056 755.179 178.056 763.929 Q178.056 772.656 174.977 777.262 Q171.922 781.845 166.112 781.845 Q160.302 781.845 157.223 777.262 Q154.167 772.656 154.167 763.929 Q154.167 755.179 157.223 750.596 Q160.302 745.989 166.112 745.989 Z" fill="#000000" fill-rule="nonzero" fill-opacity="1" /><path clip-path="url(#clip130)" d="M186.274 775.295 L191.158 775.295 L191.158 781.174 L186.274 781.174 L186.274 775.295 Z" fill="#000000" fill-rule="nonzero" fill-opacity="1" /><path clip-path="url(#clip130)" d="M205.371 777.239 L221.69 777.239 L221.69 781.174 L199.746 781.174 L199.746 777.239 Q202.408 774.484 206.991 769.855 Q211.598 765.202 212.778 763.859 Q215.024 761.336 215.903 759.6 Q216.806 757.841 216.806 756.151 Q216.806 753.397 214.861 751.66 Q212.94 749.924 209.838 749.924 Q207.639 749.924 205.186 750.688 Q202.755 751.452 199.977 753.003 L199.977 748.281 Q202.801 747.147 205.255 746.568 Q207.709 745.989 209.746 745.989 Q215.116 745.989 218.311 748.674 Q221.505 751.359 221.505 755.85 Q221.505 757.98 220.695 759.901 Q219.908 761.799 217.801 764.392 Q217.223 765.063 214.121 768.281 Q211.019 771.475 205.371 777.239 Z" fill="#000000" fill-rule="nonzero" fill-opacity="1" /><path clip-path="url(#clip130)" d="M115.973 551.297 L145.649 551.297 L145.649 555.232 L115.973 555.232 L115.973 551.297 Z" fill="#000000" fill-rule="nonzero" fill-opacity="1" /><path clip-path="url(#clip130)" d="M165.741 536.644 Q162.13 536.644 160.302 540.209 Q158.496 543.751 158.496 550.88 Q158.496 557.987 160.302 561.551 Q162.13 565.093 165.741 565.093 Q169.376 565.093 171.181 561.551 Q173.01 557.987 173.01 550.88 Q173.01 543.751 171.181 540.209 Q169.376 536.644 165.741 536.644 M165.741 532.94 Q171.552 532.94 174.607 537.547 Q177.686 542.13 177.686 550.88 Q177.686 559.607 174.607 564.213 Q171.552 568.797 165.741 568.797 Q159.931 568.797 156.853 564.213 Q153.797 559.607 153.797 550.88 Q153.797 542.13 156.853 537.547 Q159.931 532.94 165.741 532.94 Z" fill="#000000" fill-rule="nonzero" fill-opacity="1" /><path clip-path="url(#clip130)" d="M185.903 562.246 L190.788 562.246 L190.788 568.125 L185.903 568.125 L185.903 562.246 Z" fill="#000000" fill-rule="nonzero" fill-opacity="1" /><path clip-path="url(#clip130)" d="M201.783 564.19 L209.422 564.19 L209.422 537.825 L201.112 539.491 L201.112 535.232 L209.375 533.565 L214.051 533.565 L214.051 564.19 L221.69 564.19 L221.69 568.125 L201.783 568.125 L201.783 564.19 Z" fill="#000000" fill-rule="nonzero" fill-opacity="1" /><path clip-path="url(#clip130)" d="M164.515 323.596 Q160.903 323.596 159.075 327.16 Q157.269 330.702 157.269 337.832 Q157.269 344.938 159.075 348.503 Q160.903 352.044 164.515 352.044 Q168.149 352.044 169.954 348.503 Q171.783 344.938 171.783 337.832 Q171.783 330.702 169.954 327.16 Q168.149 323.596 164.515 323.596 M164.515 319.892 Q170.325 319.892 173.38 324.498 Q176.459 329.082 176.459 337.832 Q176.459 346.558 173.38 351.165 Q170.325 355.748 164.515 355.748 Q158.704 355.748 155.626 351.165 Q152.57 346.558 152.57 337.832 Q152.57 329.082 155.626 324.498 Q158.704 319.892 164.515 319.892 Z" fill="#000000" fill-rule="nonzero" fill-opacity="1" /><path clip-path="url(#clip130)" d="M184.676 349.197 L189.561 349.197 L189.561 355.077 L184.676 355.077 L184.676 349.197 Z" fill="#000000" fill-rule="nonzero" fill-opacity="1" /><path clip-path="url(#clip130)" d="M209.746 323.596 Q206.135 323.596 204.306 327.16 Q202.5 330.702 202.5 337.832 Q202.5 344.938 204.306 348.503 Q206.135 352.044 209.746 352.044 Q213.38 352.044 215.186 348.503 Q217.014 344.938 217.014 337.832 Q217.014 330.702 215.186 327.16 Q213.38 323.596 209.746 323.596 M209.746 319.892 Q215.556 319.892 218.611 324.498 Q221.69 329.082 221.69 337.832 Q221.69 346.558 218.611 351.165 Q215.556 355.748 209.746 355.748 Q203.936 355.748 200.857 351.165 Q197.801 346.558 197.801 337.832 Q197.801 329.082 200.857 324.498 Q203.936 319.892 209.746 319.892 Z" fill="#000000" fill-rule="nonzero" fill-opacity="1" /><path clip-path="url(#clip130)" d="M165.741 110.547 Q162.13 110.547 160.302 114.112 Q158.496 117.653 158.496 124.783 Q158.496 131.889 160.302 135.454 Q162.13 138.996 165.741 138.996 Q169.376 138.996 171.181 135.454 Q173.01 131.889 173.01 124.783 Q173.01 117.653 171.181 114.112 Q169.376 110.547 165.741 110.547 M165.741 106.843 Q171.552 106.843 174.607 111.45 Q177.686 116.033 177.686 124.783 Q177.686 133.51 174.607 138.116 Q171.552 142.699 165.741 142.699 Q159.931 142.699 156.853 138.116 Q153.797 133.51 153.797 124.783 Q153.797 116.033 156.853 111.45 Q159.931 106.843 165.741 106.843 Z" fill="#000000" fill-rule="nonzero" fill-opacity="1" /><path clip-path="url(#clip130)" d="M185.903 136.149 L190.788 136.149 L190.788 142.028 L185.903 142.028 L185.903 136.149 Z" fill="#000000" fill-rule="nonzero" fill-opacity="1" /><path clip-path="url(#clip130)" d="M201.783 138.093 L209.422 138.093 L209.422 111.727 L201.112 113.394 L201.112 109.135 L209.375 107.468 L214.051 107.468 L214.051 138.093 L221.69 138.093 L221.69 142.028 L201.783 142.028 L201.783 138.093 Z" fill="#000000" fill-rule="nonzero" fill-opacity="1" /><path clip-path="url(#clip130)" d="M16.4842 1546.85 L16.4842 1537.27 L48.8219 1525.15 L16.4842 1512.96 L16.4842 1503.38 L64.0042 1503.38 L64.0042 1509.65 L22.277 1509.65 L54.8694 1521.9 L54.8694 1528.36 L22.277 1540.62 L64.0042 1540.62 L64.0042 1546.85 L16.4842 1546.85 Z" fill="#000000" fill-rule="nonzero" fill-opacity="1" /><path clip-path="url(#clip130)" d="M44.7161 1460.38 L47.5806 1460.38 L47.5806 1487.3 Q53.6281 1486.92 56.8109 1483.68 Q59.9619 1480.4 59.9619 1474.57 Q59.9619 1471.2 59.1344 1468.05 Q58.3069 1464.86 56.6518 1461.75 L62.1899 1461.75 Q63.5267 1464.9 64.227 1468.21 Q64.9272 1471.52 64.9272 1474.92 Q64.9272 1483.45 59.9619 1488.45 Q54.9967 1493.41 46.5303 1493.41 Q37.7774 1493.41 32.6531 1488.7 Q27.4968 1483.96 27.4968 1475.94 Q27.4968 1468.75 32.1438 1464.58 Q36.7589 1460.38 44.7161 1460.38 M42.9973 1466.23 Q38.1912 1466.3 35.3266 1468.94 Q32.4621 1471.55 32.4621 1475.88 Q32.4621 1480.78 35.2312 1483.74 Q38.0002 1486.67 43.0292 1487.11 L42.9973 1466.23 Z" fill="#000000" fill-rule="nonzero" fill-opacity="1" /><path clip-path="url(#clip130)" d="M46.0847 1434.56 Q46.0847 1441.66 47.7079 1444.4 Q49.3312 1447.14 53.2461 1447.14 Q56.3653 1447.14 58.2114 1445.1 Q60.0256 1443.03 60.0256 1439.5 Q60.0256 1434.63 56.5881 1431.7 Q53.1188 1428.74 47.3897 1428.74 L46.0847 1428.74 L46.0847 1434.56 M43.6657 1422.88 L64.0042 1422.88 L64.0042 1428.74 L58.5933 1428.74 Q61.8398 1430.74 63.3994 1433.74 Q64.9272 1436.73 64.9272 1441.06 Q64.9272 1446.53 61.8716 1449.78 Q58.7843 1452.99 53.6281 1452.99 Q47.6125 1452.99 44.5569 1448.98 Q41.5014 1444.94 41.5014 1436.95 L41.5014 1428.74 L40.9285 1428.74 Q36.8862 1428.74 34.6901 1431.41 Q32.4621 1434.05 32.4621 1438.86 Q32.4621 1441.92 33.1941 1444.81 Q33.9262 1447.71 35.3903 1450.38 L29.9795 1450.38 Q28.7381 1447.17 28.1334 1444.14 Q27.4968 1441.12 27.4968 1438.26 Q27.4968 1430.52 31.5072 1426.7 Q35.5176 1422.88 43.6657 1422.88 Z" fill="#000000" fill-rule="nonzero" fill-opacity="1" /><path clip-path="url(#clip130)" d="M42.4881 1381.19 L64.0042 1381.19 L64.0042 1387.04 L42.679 1387.04 Q37.6183 1387.04 35.1038 1389.02 Q32.5894 1390.99 32.5894 1394.94 Q32.5894 1399.68 35.6131 1402.42 Q38.6368 1405.15 43.8567 1405.15 L64.0042 1405.15 L64.0042 1411.04 L28.3562 1411.04 L28.3562 1405.15 L33.8944 1405.15 Q30.6797 1403.05 29.0883 1400.22 Q27.4968 1397.36 27.4968 1393.63 Q27.4968 1387.49 31.3163 1384.34 Q35.1038 1381.19 42.4881 1381.19 Z" fill="#000000" fill-rule="nonzero" fill-opacity="1" /><path clip-path="url(#clip130)" d="M38.4458 1339.08 Q41.024 1341.97 43.6021 1343.34 Q46.1484 1344.68 48.9493 1344.68 Q53.5962 1344.68 56.6836 1341.31 Q59.771 1337.93 59.771 1332.84 Q59.771 1329.82 58.7843 1327.17 Q57.7658 1324.53 55.7287 1322.21 L38.4458 1339.08 M34.881 1334.59 L51.4319 1318.42 Q48.5991 1316.54 45.3845 1315.49 Q42.138 1314.44 38.5095 1314.25 L38.5095 1308.33 Q42.7109 1308.71 46.8167 1310.37 Q50.9226 1312.02 54.933 1314.98 L64.0042 1306.1 L64.0042 1314.12 L59.3254 1318.68 Q62.1581 1321.99 63.5586 1325.61 Q64.9272 1329.24 64.9272 1333.41 Q64.9272 1341.08 60.5667 1345.95 Q56.1743 1350.82 49.3312 1350.82 Q45.2572 1350.82 41.6924 1348.69 Q38.0957 1346.56 34.9447 1342.29 Q32.9395 1343.82 30.9661 1344.62 Q28.9609 1345.41 27.0512 1345.41 Q21.895 1345.41 18.7758 1341.88 Q15.6248 1338.35 15.6248 1332.49 Q15.6248 1329.85 16.1977 1327.24 Q16.7706 1324.6 17.9164 1321.89 L23.7092 1321.89 Q22.2133 1324.66 21.4494 1327.17 Q20.6537 1329.69 20.6537 1331.85 Q20.6537 1335.2 22.4361 1337.3 Q24.1867 1339.36 26.9876 1339.36 Q28.6108 1339.36 30.2659 1338.44 Q31.8892 1337.49 34.881 1334.59 Z" fill="#000000" fill-rule="nonzero" fill-opacity="1" /><path clip-path="url(#clip130)" d="M28.3562 1281.44 L28.3562 1275.23 L58.275 1264.09 L28.3562 1252.95 L28.3562 1246.74 L64.0042 1260.11 L64.0042 1268.07 L28.3562 1281.44 Z" fill="#000000" fill-rule="nonzero" fill-opacity="1" /><path clip-path="url(#clip130)" d="M46.0847 1222.46 Q46.0847 1229.56 47.7079 1232.29 Q49.3312 1235.03 53.2461 1235.03 Q56.3653 1235.03 58.2114 1232.99 Q60.0256 1230.92 60.0256 1227.39 Q60.0256 1222.52 56.5881 1219.59 Q53.1188 1216.63 47.3897 1216.63 L46.0847 1216.63 L46.0847 1222.46 M43.6657 1210.78 L64.0042 1210.78 L64.0042 1216.63 L58.5933 1216.63 Q61.8398 1218.64 63.3994 1221.63 Q64.9272 1224.62 64.9272 1228.95 Q64.9272 1234.43 61.8716 1237.67 Q58.7843 1240.89 53.6281 1240.89 Q47.6125 1240.89 44.5569 1236.88 Q41.5014 1232.83 41.5014 1224.85 L41.5014 1216.63 L40.9285 1216.63 Q36.8862 1216.63 34.6901 1219.31 Q32.4621 1221.95 32.4621 1226.76 Q32.4621 1229.81 33.1941 1232.71 Q33.9262 1235.6 35.3903 1238.28 L29.9795 1238.28 Q28.7381 1235.06 28.1334 1232.04 Q27.4968 1229.02 27.4968 1226.15 Q27.4968 1218.42 31.5072 1214.6 Q35.5176 1210.78 43.6657 1210.78 Z" fill="#000000" fill-rule="nonzero" fill-opacity="1" /><path clip-path="url(#clip130)" d="M33.8307 1178.06 Q33.2578 1179.04 33.0032 1180.22 Q32.7167 1181.37 32.7167 1182.77 Q32.7167 1187.73 35.9632 1190.41 Q39.1779 1193.05 45.2253 1193.05 L64.0042 1193.05 L64.0042 1198.94 L28.3562 1198.94 L28.3562 1193.05 L33.8944 1193.05 Q30.6479 1191.2 29.0883 1188.24 Q27.4968 1185.28 27.4968 1181.05 Q27.4968 1180.44 27.5923 1179.71 Q27.656 1178.98 27.8151 1178.09 L33.8307 1178.06 Z" fill="#000000" fill-rule="nonzero" fill-opacity="1" /><path clip-path="url(#clip130)" d="M28.3562 1171.91 L28.3562 1166.06 L64.0042 1166.06 L64.0042 1171.91 L28.3562 1171.91 M14.479 1171.91 L14.479 1166.06 L21.895 1166.06 L21.895 1171.91 L14.479 1171.91 Z" fill="#000000" fill-rule="nonzero" fill-opacity="1" /><path clip-path="url(#clip130)" d="M46.0847 1137.6 Q46.0847 1144.7 47.7079 1147.44 Q49.3312 1150.18 53.2461 1150.18 Q56.3653 1150.18 58.2114 1148.14 Q60.0256 1146.07 60.0256 1142.54 Q60.0256 1137.67 56.5881 1134.74 Q53.1188 1131.78 47.3897 1131.78 L46.0847 1131.78 L46.0847 1137.6 M43.6657 1125.92 L64.0042 1125.92 L64.0042 1131.78 L58.5933 1131.78 Q61.8398 1133.78 63.3994 1136.78 Q64.9272 1139.77 64.9272 1144.1 Q64.9272 1149.57 61.8716 1152.82 Q58.7843 1156.03 53.6281 1156.03 Q47.6125 1156.03 44.5569 1152.02 Q41.5014 1147.98 41.5014 1139.99 L41.5014 1131.78 L40.9285 1131.78 Q36.8862 1131.78 34.6901 1134.45 Q32.4621 1137.09 32.4621 1141.9 Q32.4621 1144.96 33.1941 1147.85 Q33.9262 1150.75 35.3903 1153.42 L29.9795 1153.42 Q28.7381 1150.21 28.1334 1147.18 Q27.4968 1144.16 27.4968 1141.3 Q27.4968 1133.56 31.5072 1129.74 Q35.5176 1125.92 43.6657 1125.92 Z" fill="#000000" fill-rule="nonzero" fill-opacity="1" /><path clip-path="url(#clip130)" d="M42.4881 1084.23 L64.0042 1084.23 L64.0042 1090.08 L42.679 1090.08 Q37.6183 1090.08 35.1038 1092.06 Q32.5894 1094.03 32.5894 1097.98 Q32.5894 1102.72 35.6131 1105.46 Q38.6368 1108.19 43.8567 1108.19 L64.0042 1108.19 L64.0042 1114.08 L28.3562 1114.08 L28.3562 1108.19 L33.8944 1108.19 Q30.6797 1106.09 29.0883 1103.26 Q27.4968 1100.4 27.4968 1096.67 Q27.4968 1090.53 31.3163 1087.38 Q35.1038 1084.23 42.4881 1084.23 Z" fill="#000000" fill-rule="nonzero" fill-opacity="1" /><path clip-path="url(#clip130)" d="M29.7248 1046.89 L35.1993 1046.89 Q33.8307 1049.37 33.1623 1051.89 Q32.4621 1054.37 32.4621 1056.92 Q32.4621 1062.62 36.0905 1065.77 Q39.6872 1068.92 46.212 1068.92 Q52.7369 1068.92 56.3653 1065.77 Q59.9619 1062.62 59.9619 1056.92 Q59.9619 1054.37 59.2935 1051.89 Q58.5933 1049.37 57.2247 1046.89 L62.6355 1046.89 Q63.7814 1049.34 64.3543 1051.98 Q64.9272 1054.59 64.9272 1057.55 Q64.9272 1065.61 59.8664 1070.35 Q54.8057 1075.09 46.212 1075.09 Q37.491 1075.09 32.4939 1070.32 Q27.4968 1065.51 27.4968 1057.17 Q27.4968 1054.47 28.0697 1051.89 Q28.6108 1049.31 29.7248 1046.89 Z" fill="#000000" fill-rule="nonzero" fill-opacity="1" /><path clip-path="url(#clip130)" d="M44.7161 1006.22 L47.5806 1006.22 L47.5806 1033.14 Q53.6281 1032.76 56.8109 1029.51 Q59.9619 1026.24 59.9619 1020.41 Q59.9619 1017.04 59.1344 1013.89 Q58.3069 1010.7 56.6518 1007.58 L62.1899 1007.58 Q63.5267 1010.74 64.227 1014.05 Q64.9272 1017.36 64.9272 1020.76 Q64.9272 1029.29 59.9619 1034.29 Q54.9967 1039.25 46.5303 1039.25 Q37.7774 1039.25 32.6531 1034.54 Q27.4968 1029.8 27.4968 1021.78 Q27.4968 1014.59 32.1438 1010.42 Q36.7589 1006.22 44.7161 1006.22 M42.9973 1012.07 Q38.1912 1012.14 35.3266 1014.78 Q32.4621 1017.39 32.4621 1021.72 Q32.4621 1026.62 35.2312 1029.58 Q38.0002 1032.51 43.0292 1032.95 L42.9973 1012.07 Z" fill="#000000" fill-rule="nonzero" fill-opacity="1" /><path clip-path="url(#clip130)" d="M33.8307 955.226 Q33.2578 956.213 33.0032 957.39 Q32.7167 958.536 32.7167 959.937 Q32.7167 964.902 35.9632 967.576 Q39.1779 970.217 45.2253 970.217 L64.0042 970.217 L64.0042 976.106 L28.3562 976.106 L28.3562 970.217 L33.8944 970.217 Q30.6479 968.371 29.0883 965.411 Q27.4968 962.451 27.4968 958.218 Q27.4968 957.613 27.5923 956.881 Q27.656 956.149 27.8151 955.258 L33.8307 955.226 Z" fill="#000000" fill-rule="nonzero" fill-opacity="1" /><path clip-path="url(#clip130)" d="M44.7161 920.024 L47.5806 920.024 L47.5806 946.951 Q53.6281 946.569 56.8109 943.322 Q59.9619 940.044 59.9619 934.219 Q59.9619 930.845 59.1344 927.694 Q58.3069 924.512 56.6518 921.392 L62.1899 921.392 Q63.5267 924.543 64.227 927.854 Q64.9272 931.164 64.9272 934.569 Q64.9272 943.099 59.9619 948.096 Q54.9967 953.062 46.5303 953.062 Q37.7774 953.062 32.6531 948.351 Q27.4968 943.609 27.4968 935.588 Q27.4968 928.395 32.1438 924.225 Q36.7589 920.024 44.7161 920.024 M42.9973 925.88 Q38.1912 925.944 35.3266 928.586 Q32.4621 931.196 32.4621 935.524 Q32.4621 940.426 35.2312 943.386 Q38.0002 946.314 43.0292 946.76 L42.9973 925.88 Z" fill="#000000" fill-rule="nonzero" fill-opacity="1" /><path clip-path="url(#clip130)" d="M14.479 910.411 L14.479 904.555 L64.0042 904.555 L64.0042 910.411 L14.479 910.411 Z" fill="#000000" fill-rule="nonzero" fill-opacity="1" /><path clip-path="url(#clip130)" d="M46.0847 876.1 Q46.0847 883.198 47.7079 885.935 Q49.3312 888.673 53.2461 888.673 Q56.3653 888.673 58.2114 886.636 Q60.0256 884.567 60.0256 881.034 Q60.0256 876.164 56.5881 873.236 Q53.1188 870.276 47.3897 870.276 L46.0847 870.276 L46.0847 876.1 M43.6657 864.419 L64.0042 864.419 L64.0042 870.276 L58.5933 870.276 Q61.8398 872.281 63.3994 875.273 Q64.9272 878.265 64.9272 882.593 Q64.9272 888.068 61.8716 891.314 Q58.7843 894.529 53.6281 894.529 Q47.6125 894.529 44.5569 890.519 Q41.5014 886.476 41.5014 878.487 L41.5014 870.276 L40.9285 870.276 Q36.8862 870.276 34.6901 872.949 Q32.4621 875.591 32.4621 880.397 Q32.4621 883.453 33.1941 886.349 Q33.9262 889.246 35.3903 891.919 L29.9795 891.919 Q28.7381 888.704 28.1334 885.681 Q27.4968 882.657 27.4968 879.792 Q27.4968 872.058 31.5072 868.239 Q35.5176 864.419 43.6657 864.419 Z" fill="#000000" fill-rule="nonzero" fill-opacity="1" /><path clip-path="url(#clip130)" d="M18.2347 846.563 L28.3562 846.563 L28.3562 834.5 L32.9077 834.5 L32.9077 846.563 L52.2594 846.563 Q56.6199 846.563 57.8613 845.386 Q59.1026 844.176 59.1026 840.516 L59.1026 834.5 L64.0042 834.5 L64.0042 840.516 Q64.0042 847.295 61.4897 849.874 Q58.9434 852.452 52.2594 852.452 L32.9077 852.452 L32.9077 856.749 L28.3562 856.749 L28.3562 852.452 L18.2347 852.452 L18.2347 846.563 Z" fill="#000000" fill-rule="nonzero" fill-opacity="1" /><path clip-path="url(#clip130)" d="M28.3562 826.798 L28.3562 820.941 L64.0042 820.941 L64.0042 826.798 L28.3562 826.798 M14.479 826.798 L14.479 820.941 L21.895 820.941 L21.895 826.798 L14.479 826.798 Z" fill="#000000" fill-rule="nonzero" fill-opacity="1" /><path clip-path="url(#clip130)" d="M28.3562 812.889 L28.3562 806.682 L58.275 795.542 L28.3562 784.402 L28.3562 778.196 L64.0042 791.564 L64.0042 799.521 L28.3562 812.889 Z" fill="#000000" fill-rule="nonzero" fill-opacity="1" /><path clip-path="url(#clip130)" d="M44.7161 739.62 L47.5806 739.62 L47.5806 766.547 Q53.6281 766.165 56.8109 762.918 Q59.9619 759.64 59.9619 753.815 Q59.9619 750.441 59.1344 747.29 Q58.3069 744.107 56.6518 740.988 L62.1899 740.988 Q63.5267 744.139 64.227 747.449 Q64.9272 750.76 64.9272 754.165 Q64.9272 762.695 59.9619 767.692 Q54.9967 772.658 46.5303 772.658 Q37.7774 772.658 32.6531 767.947 Q27.4968 763.205 27.4968 755.184 Q27.4968 747.99 32.1438 743.821 Q36.7589 739.62 44.7161 739.62 M42.9973 745.476 Q38.1912 745.54 35.3266 748.181 Q32.4621 750.791 32.4621 755.12 Q32.4621 760.022 35.2312 762.982 Q38.0002 765.91 43.0292 766.356 L42.9973 745.476 Z" fill="#000000" fill-rule="nonzero" fill-opacity="1" /><path clip-path="url(#clip130)" d="M18.2347 703.494 L28.3562 703.494 L28.3562 691.431 L32.9077 691.431 L32.9077 703.494 L52.2594 703.494 Q56.6199 703.494 57.8613 702.317 Q59.1026 701.107 59.1026 697.447 L59.1026 691.431 L64.0042 691.431 L64.0042 697.447 Q64.0042 704.226 61.4897 706.804 Q58.9434 709.382 52.2594 709.382 L32.9077 709.382 L32.9077 713.679 L28.3562 713.679 L28.3562 709.382 L18.2347 709.382 L18.2347 703.494 Z" fill="#000000" fill-rule="nonzero" fill-opacity="1" /><path clip-path="url(#clip130)" d="M32.4621 669.915 Q32.4621 674.626 36.1542 677.363 Q39.8145 680.1 46.212 680.1 Q52.6095 680.1 56.3017 677.395 Q59.9619 674.658 59.9619 669.915 Q59.9619 665.236 56.2698 662.499 Q52.5777 659.762 46.212 659.762 Q39.8781 659.762 36.186 662.499 Q32.4621 665.236 32.4621 669.915 M27.4968 669.915 Q27.4968 662.276 32.4621 657.916 Q37.4273 653.555 46.212 653.555 Q54.9649 653.555 59.9619 657.916 Q64.9272 662.276 64.9272 669.915 Q64.9272 677.586 59.9619 681.946 Q54.9649 686.275 46.212 686.275 Q37.4273 686.275 32.4621 681.946 Q27.4968 677.586 27.4968 669.915 Z" fill="#000000" fill-rule="nonzero" fill-opacity="1" /><path clip-path="url(#clip130)" d="M18.2347 617.334 L28.3562 617.334 L28.3562 605.271 L32.9077 605.271 L32.9077 617.334 L52.2594 617.334 Q56.6199 617.334 57.8613 616.157 Q59.1026 614.947 59.1026 611.287 L59.1026 605.271 L64.0042 605.271 L64.0042 611.287 Q64.0042 618.066 61.4897 620.645 Q58.9434 623.223 52.2594 623.223 L32.9077 623.223 L32.9077 627.519 L28.3562 627.519 L28.3562 623.223 L18.2347 623.223 L18.2347 617.334 Z" fill="#000000" fill-rule="nonzero" fill-opacity="1" /><path clip-path="url(#clip130)" d="M42.4881 567.936 L64.0042 567.936 L64.0042 573.793 L42.679 573.793 Q37.6183 573.793 35.1038 575.766 Q32.5894 577.74 32.5894 581.686 Q32.5894 586.429 35.6131 589.166 Q38.6368 591.903 43.8567 591.903 L64.0042 591.903 L64.0042 597.792 L14.479 597.792 L14.479 591.903 L33.8944 591.903 Q30.6797 589.803 29.0883 586.97 Q27.4968 584.105 27.4968 580.381 Q27.4968 574.239 31.3163 571.087 Q35.1038 567.936 42.4881 567.936 Z" fill="#000000" fill-rule="nonzero" fill-opacity="1" /><path clip-path="url(#clip130)" d="M44.7161 525.764 L47.5806 525.764 L47.5806 552.691 Q53.6281 552.309 56.8109 549.062 Q59.9619 545.784 59.9619 539.959 Q59.9619 536.585 59.1344 533.434 Q58.3069 530.251 56.6518 527.132 L62.1899 527.132 Q63.5267 530.283 64.227 533.593 Q64.9272 536.904 64.9272 540.309 Q64.9272 548.839 59.9619 553.836 Q54.9967 558.802 46.5303 558.802 Q37.7774 558.802 32.6531 554.091 Q27.4968 549.349 27.4968 541.328 Q27.4968 534.135 32.1438 529.965 Q36.7589 525.764 44.7161 525.764 M42.9973 531.62 Q38.1912 531.684 35.3266 534.326 Q32.4621 536.935 32.4621 541.264 Q32.4621 546.166 35.2312 549.126 Q38.0002 552.054 43.0292 552.5 L42.9973 531.62 Z" fill="#000000" fill-rule="nonzero" fill-opacity="1" /><path clip-path="url(#clip130)" d="M32.4621 481.617 Q32.4621 486.328 36.1542 489.065 Q39.8145 491.803 46.212 491.803 Q52.6095 491.803 56.3017 489.097 Q59.9619 486.36 59.9619 481.617 Q59.9619 476.939 56.2698 474.201 Q52.5777 471.464 46.212 471.464 Q39.8781 471.464 36.186 474.201 Q32.4621 476.939 32.4621 481.617 M27.4968 481.617 Q27.4968 473.979 32.4621 469.618 Q37.4273 465.258 46.212 465.258 Q54.9649 465.258 59.9619 469.618 Q64.9272 473.979 64.9272 481.617 Q64.9272 489.288 59.9619 493.649 Q54.9649 497.977 46.212 497.977 Q37.4273 497.977 32.4621 493.649 Q27.4968 489.288 27.4968 481.617 Z" fill="#000000" fill-rule="nonzero" fill-opacity="1" /><path clip-path="url(#clip130)" d="M49.9359 456.155 L28.3562 456.155 L28.3562 450.298 L49.7131 450.298 Q54.7739 450.298 57.3202 448.325 Q59.8346 446.351 59.8346 442.405 Q59.8346 437.662 56.8109 434.925 Q53.7872 432.156 48.5673 432.156 L28.3562 432.156 L28.3562 426.299 L64.0042 426.299 L64.0042 432.156 L58.5296 432.156 Q61.7762 434.288 63.3676 437.121 Q64.9272 439.922 64.9272 443.646 Q64.9272 449.789 61.1078 452.972 Q57.2883 456.155 49.9359 456.155 M27.4968 441.418 L27.4968 441.418 Z" fill="#000000" fill-rule="nonzero" fill-opacity="1" /><path clip-path="url(#clip130)" d="M18.2347 408.444 L28.3562 408.444 L28.3562 396.381 L32.9077 396.381 L32.9077 408.444 L52.2594 408.444 Q56.6199 408.444 57.8613 407.266 Q59.1026 406.057 59.1026 402.396 L59.1026 396.381 L64.0042 396.381 L64.0042 402.396 Q64.0042 409.176 61.4897 411.754 Q58.9434 414.332 52.2594 414.332 L32.9077 414.332 L32.9077 418.629 L28.3562 418.629 L28.3562 414.332 L18.2347 414.332 L18.2347 408.444 Z" fill="#000000" fill-rule="nonzero" fill-opacity="1" /><path clip-path="url(#clip130)" d="M58.657 383.013 L77.5631 383.013 L77.5631 388.901 L28.3562 388.901 L28.3562 383.013 L33.7671 383.013 Q30.5842 381.167 29.0564 378.366 Q27.4968 375.533 27.4968 371.618 Q27.4968 365.125 32.6531 361.083 Q37.8093 357.009 46.212 357.009 Q54.6147 357.009 59.771 361.083 Q64.9272 365.125 64.9272 371.618 Q64.9272 375.533 63.3994 378.366 Q61.8398 381.167 58.657 383.013 M46.212 363.088 Q39.7508 363.088 36.0905 365.762 Q32.3984 368.403 32.3984 373.05 Q32.3984 377.697 36.0905 380.371 Q39.7508 383.013 46.212 383.013 Q52.6732 383.013 56.3653 380.371 Q60.0256 377.697 60.0256 373.05 Q60.0256 368.403 56.3653 365.762 Q52.6732 363.088 46.212 363.088 Z" fill="#000000" fill-rule="nonzero" fill-opacity="1" /><path clip-path="url(#clip130)" d="M49.9359 347.906 L28.3562 347.906 L28.3562 342.049 L49.7131 342.049 Q54.7739 342.049 57.3202 340.076 Q59.8346 338.103 59.8346 334.156 Q59.8346 329.413 56.8109 326.676 Q53.7872 323.907 48.5673 323.907 L28.3562 323.907 L28.3562 318.051 L64.0042 318.051 L64.0042 323.907 L58.5296 323.907 Q61.7762 326.04 63.3676 328.872 Q64.9272 331.673 64.9272 335.397 Q64.9272 341.54 61.1078 344.723 Q57.2883 347.906 49.9359 347.906 M27.4968 333.169 L27.4968 333.169 Z" fill="#000000" fill-rule="nonzero" fill-opacity="1" /><path clip-path="url(#clip130)" d="M18.2347 300.195 L28.3562 300.195 L28.3562 288.132 L32.9077 288.132 L32.9077 300.195 L52.2594 300.195 Q56.6199 300.195 57.8613 299.017 Q59.1026 297.808 59.1026 294.147 L59.1026 288.132 L64.0042 288.132 L64.0042 294.147 Q64.0042 300.927 61.4897 303.505 Q58.9434 306.083 52.2594 306.083 L32.9077 306.083 L32.9077 310.38 L28.3562 310.38 L28.3562 306.083 L18.2347 306.083 L18.2347 300.195 Z" fill="#000000" fill-rule="nonzero" fill-opacity="1" /><path clip-path="url(#clip130)" d="M16.4842 259.454 L16.4842 253.025 L58.5933 253.025 L58.5933 229.886 L64.0042 229.886 L64.0042 259.454 L16.4842 259.454 Z" fill="#000000" fill-rule="nonzero" fill-opacity="1" /><path clip-path="url(#clip130)" d="M18.0438 194.651 L24.314 194.651 Q22.5634 198.312 21.704 201.558 Q20.8447 204.805 20.8447 207.828 Q20.8447 213.08 22.8817 215.945 Q24.9187 218.777 28.6745 218.777 Q31.8255 218.777 33.4488 216.9 Q35.0402 214.99 36.0269 209.706 L36.8226 205.823 Q38.1912 198.63 41.6605 195.224 Q45.098 191.787 50.8908 191.787 Q57.7976 191.787 61.3624 196.434 Q64.9272 201.049 64.9272 209.993 Q64.9272 213.367 64.1633 217.186 Q63.3994 220.974 61.9035 225.048 L55.2831 225.048 Q57.4793 221.133 58.5933 217.377 Q59.7073 213.621 59.7073 209.993 Q59.7073 204.486 57.543 201.495 Q55.3786 198.503 51.3682 198.503 Q47.8671 198.503 45.8937 200.667 Q43.9204 202.8 42.9337 207.701 L42.1698 211.616 Q40.7375 218.809 37.682 222.024 Q34.6264 225.239 29.1837 225.239 Q22.8817 225.239 19.2532 220.814 Q15.6248 216.358 15.6248 208.56 Q15.6248 205.218 16.2295 201.749 Q16.8343 198.28 18.0438 194.651 Z" fill="#000000" fill-rule="nonzero" fill-opacity="1" /><path clip-path="url(#clip130)" d="M41.3104 175.332 L58.7206 175.332 L58.7206 165.019 Q58.7206 159.831 56.5881 157.348 Q54.4238 154.834 49.9996 154.834 Q45.5436 154.834 43.4429 157.348 Q41.3104 159.831 41.3104 165.019 L41.3104 175.332 M21.7677 175.332 L36.0905 175.332 L36.0905 165.815 Q36.0905 161.104 34.34 158.812 Q32.5576 156.489 28.9291 156.489 Q25.3325 156.489 23.5501 158.812 Q21.7677 161.104 21.7677 165.815 L21.7677 175.332 M16.4842 181.761 L16.4842 165.337 Q16.4842 157.985 19.5397 154.006 Q22.5952 150.028 28.2289 150.028 Q32.5894 150.028 35.1675 152.065 Q37.7456 154.102 38.3822 158.049 Q39.4007 153.306 42.6472 150.696 Q45.8619 148.054 50.6998 148.054 Q57.0655 148.054 60.5348 152.383 Q64.0042 156.712 64.0042 164.701 L64.0042 181.761 L16.4842 181.761 Z" fill="#000000" fill-rule="nonzero" fill-opacity="1" /><path clip-path="url(#clip130)" d="M29.4065 93.8505 L34.9447 93.8505 Q33.6716 96.3331 33.035 99.0067 Q32.3984 101.68 32.3984 104.545 Q32.3984 108.905 33.7352 111.102 Q35.072 113.266 37.7456 113.266 Q39.7826 113.266 40.9603 111.706 Q42.1061 110.147 43.1565 105.436 L43.6021 103.431 Q44.9389 97.1925 47.3897 94.5825 Q49.8086 91.9407 54.1691 91.9407 Q59.1344 91.9407 62.0308 95.8875 Q64.9272 99.8024 64.9272 106.677 Q64.9272 109.542 64.3543 112.661 Q63.8132 115.748 62.6992 119.186 L56.6518 119.186 Q58.3387 115.939 59.198 112.788 Q60.0256 109.637 60.0256 106.55 Q60.0256 102.412 58.6251 100.184 Q57.1929 97.9563 54.6147 97.9563 Q52.2276 97.9563 50.9545 99.5796 Q49.6813 101.171 48.5037 106.614 L48.0262 108.651 Q46.8804 114.093 44.5251 116.512 Q42.138 118.931 38.0002 118.931 Q32.9713 118.931 30.2341 115.367 Q27.4968 111.802 27.4968 105.245 Q27.4968 101.999 27.9743 99.134 Q28.4517 96.2694 29.4065 93.8505 Z" fill="#000000" fill-rule="nonzero" fill-opacity="1" /><path clip-path="url(#clip130)" d="M28.3562 82.615 L28.3562 76.7585 L64.0042 76.7585 L64.0042 82.615 L28.3562 82.615 M14.479 82.615 L14.479 76.7585 L21.895 76.7585 L21.895 82.615 L14.479 82.615 Z" fill="#000000" fill-rule="nonzero" fill-opacity="1" /><path clip-path="url(#clip130)" d="M28.3562 67.0508 L28.3562 39.2327 L33.7034 39.2327 L59.3254 61.258 L59.3254 39.2327 L64.0042 39.2327 L64.0042 67.8465 L58.657 67.8465 L33.035 45.8212 L33.035 67.0508 L28.3562 67.0508 Z" fill="#000000" fill-rule="nonzero" fill-opacity="1" /><path clip-path="url(#clip130)" d="M44.7161 -0.202857 L47.5806 -0.202857 L47.5806 26.7241 Q53.6281 26.3421 56.8109 23.0956 Q59.9619 19.8173 59.9619 13.9927 Q59.9619 10.6188 59.1344 7.46782 Q58.3069 4.28497 56.6518 1.16577 L62.1899 1.16577 Q63.5267 4.31679 64.227 7.62696 Q64.9272 10.9371 64.9272 14.3428 Q64.9272 22.8728 59.9619 27.8699 Q54.9967 32.8352 46.5303 32.8352 Q37.7774 32.8352 32.6531 28.1245 Q27.4968 23.3821 27.4968 15.3613 Q27.4968 8.16805 32.1438 3.99851 Q36.7589 -0.202857 44.7161 -0.202857 M42.9973 5.65359 Q38.1912 5.71725 35.3266 8.35902 Q32.4621 10.969 32.4621 15.2976 Q32.4621 20.1992 35.2312 23.1593 Q38.0002 26.0875 43.0292 26.5331 L42.9973 5.65359 Z" fill="#000000" fill-rule="nonzero" fill-opacity="1" /><path clip-path="url(#clip130)" d="M422.653 12.096 L460.893 12.096 L460.893 18.9825 L430.835 18.9825 L430.835 36.8875 L459.637 36.8875 L459.637 43.7741 L430.835 43.7741 L430.835 65.6895 L461.622 65.6895 L461.622 72.576 L422.653 72.576 L422.653 12.096 Z" fill="#000000" fill-rule="nonzero" fill-opacity="1" /><path clip-path="url(#clip130)" d="M501.038 34.1734 Q499.782 33.4443 498.283 33.1202 Q496.825 32.7556 495.042 32.7556 Q488.723 32.7556 485.32 36.8875 Q481.958 40.9789 481.958 48.6757 L481.958 72.576 L474.464 72.576 L474.464 27.2059 L481.958 27.2059 L481.958 34.2544 Q484.307 30.1225 488.075 28.1376 Q491.842 26.1121 497.23 26.1121 Q497.999 26.1121 498.931 26.2337 Q499.863 26.3147 500.997 26.5172 L501.038 34.1734 Z" fill="#000000" fill-rule="nonzero" fill-opacity="1" /><path clip-path="url(#clip130)" d="M533.688 34.1734 Q532.432 33.4443 530.933 33.1202 Q529.475 32.7556 527.692 32.7556 Q521.373 32.7556 517.97 36.8875 Q514.608 40.9789 514.608 48.6757 L514.608 72.576 L507.114 72.576 L507.114 27.2059 L514.608 27.2059 L514.608 34.2544 Q516.958 30.1225 520.725 28.1376 Q524.492 26.1121 529.88 26.1121 Q530.65 26.1121 531.581 26.2337 Q532.513 26.3147 533.647 26.5172 L533.688 34.1734 Z" fill="#000000" fill-rule="nonzero" fill-opacity="1" /><path clip-path="url(#clip130)" d="M557.264 32.4315 Q551.269 32.4315 547.785 37.1306 Q544.301 41.7891 544.301 49.9314 Q544.301 58.0738 547.744 62.7728 Q551.228 67.4314 557.264 67.4314 Q563.219 67.4314 566.703 62.7323 Q570.186 58.0333 570.186 49.9314 Q570.186 41.8701 566.703 37.1711 Q563.219 32.4315 557.264 32.4315 M557.264 26.1121 Q566.986 26.1121 572.536 32.4315 Q578.086 38.7509 578.086 49.9314 Q578.086 61.0714 572.536 67.4314 Q566.986 73.7508 557.264 73.7508 Q547.501 73.7508 541.952 67.4314 Q536.442 61.0714 536.442 49.9314 Q536.442 38.7509 541.952 32.4315 Q547.501 26.1121 557.264 26.1121 Z" fill="#000000" fill-rule="nonzero" fill-opacity="1" /><path clip-path="url(#clip130)" d="M616.731 34.1734 Q615.476 33.4443 613.977 33.1202 Q612.518 32.7556 610.736 32.7556 Q604.417 32.7556 601.014 36.8875 Q597.652 40.9789 597.652 48.6757 L597.652 72.576 L590.157 72.576 L590.157 27.2059 L597.652 27.2059 L597.652 34.2544 Q600.001 30.1225 603.768 28.1376 Q607.536 26.1121 612.923 26.1121 Q613.693 26.1121 614.625 26.2337 Q615.557 26.3147 616.691 26.5172 L616.731 34.1734 Z" fill="#000000" fill-rule="nonzero" fill-opacity="1" /><path clip-path="url(#clip130)" d="M651.245 12.096 L663.438 12.096 L678.872 53.2532 L694.387 12.096 L706.58 12.096 L706.58 72.576 L698.6 72.576 L698.6 19.4686 L683.004 60.9499 L674.781 60.9499 L659.185 19.4686 L659.185 72.576 L651.245 72.576 L651.245 12.096 Z" fill="#000000" fill-rule="nonzero" fill-opacity="1" /><path clip-path="url(#clip130)" d="M761.308 48.0275 L761.308 51.6733 L727.037 51.6733 Q727.524 59.3701 731.655 63.421 Q735.828 67.4314 743.241 67.4314 Q747.535 67.4314 751.545 66.3781 Q755.596 65.3249 759.566 63.2184 L759.566 70.267 Q755.556 71.9684 751.343 72.8596 Q747.13 73.7508 742.795 73.7508 Q731.939 73.7508 725.579 67.4314 Q719.26 61.1119 719.26 50.3365 Q719.26 39.1965 725.255 32.6746 Q731.291 26.1121 741.499 26.1121 Q750.654 26.1121 755.961 32.0264 Q761.308 37.9003 761.308 48.0275 M753.854 45.84 Q753.773 39.7232 750.411 36.0774 Q747.089 32.4315 741.58 32.4315 Q735.342 32.4315 731.574 35.9558 Q727.848 39.4801 727.281 45.8805 L753.854 45.84 Z" fill="#000000" fill-rule="nonzero" fill-opacity="1" /><path clip-path="url(#clip130)" d="M794.161 49.7694 Q785.127 49.7694 781.644 51.8354 Q778.16 53.9013 778.16 58.8839 Q778.16 62.8538 780.752 65.2034 Q783.386 67.5124 787.882 67.5124 Q794.08 67.5124 797.807 63.1374 Q801.574 58.7219 801.574 51.4303 L801.574 49.7694 L794.161 49.7694 M809.028 46.6907 L809.028 72.576 L801.574 72.576 L801.574 65.6895 Q799.022 69.8214 795.214 71.8063 Q791.406 73.7508 785.897 73.7508 Q778.93 73.7508 774.798 69.8619 Q770.706 65.9325 770.706 59.3701 Q770.706 51.7138 775.81 47.825 Q780.955 43.9361 791.123 43.9361 L801.574 43.9361 L801.574 43.2069 Q801.574 38.0623 798.171 35.2672 Q794.809 32.4315 788.692 32.4315 Q784.803 32.4315 781.117 33.3632 Q777.431 34.295 774.028 36.1584 L774.028 29.2718 Q778.119 27.692 781.968 26.9223 Q785.816 26.1121 789.462 26.1121 Q799.306 26.1121 804.167 31.2163 Q809.028 36.3204 809.028 46.6907 Z" fill="#000000" fill-rule="nonzero" fill-opacity="1" /><path clip-path="url(#clip130)" d="M862.095 45.1919 L862.095 72.576 L854.641 72.576 L854.641 45.4349 Q854.641 38.994 852.129 35.7938 Q849.618 32.5936 844.595 32.5936 Q838.559 32.5936 835.075 36.4419 Q831.591 40.2903 831.591 46.9338 L831.591 72.576 L824.097 72.576 L824.097 27.2059 L831.591 27.2059 L831.591 34.2544 Q834.265 30.163 837.87 28.1376 Q841.516 26.1121 846.256 26.1121 Q854.074 26.1121 858.084 30.9732 Q862.095 35.7938 862.095 45.1919 Z" fill="#000000" fill-rule="nonzero" fill-opacity="1" /><path clip-path="url(#clip130)" d="M915.688 40.0472 Q912.002 43.3285 910.26 46.6097 Q908.558 49.8504 908.558 53.4152 Q908.558 59.3295 912.852 63.2589 Q917.146 67.1883 923.628 67.1883 Q927.476 67.1883 930.838 65.9325 Q934.201 64.6362 937.158 62.0436 L915.688 40.0472 M921.4 35.5102 L941.978 56.5749 Q944.368 52.9696 945.705 48.8782 Q947.042 44.7463 947.285 40.1283 L954.82 40.1283 Q954.334 45.4755 952.227 50.7011 Q950.121 55.9268 946.353 61.0309 L957.655 72.576 L947.447 72.576 L941.654 66.6212 Q937.441 70.2265 932.823 72.0089 Q928.205 73.7508 922.899 73.7508 Q913.136 73.7508 906.938 68.201 Q900.74 62.6108 900.74 53.9013 Q900.74 48.7162 903.454 44.1792 Q906.168 39.6016 911.597 35.5912 Q909.652 33.0392 908.639 30.5276 Q907.627 27.9755 907.627 25.545 Q907.627 18.9825 912.123 15.0127 Q916.62 11.0023 924.073 11.0023 Q927.436 11.0023 930.757 11.7314 Q934.12 12.4606 937.563 13.9189 L937.563 21.2916 Q934.039 19.3876 930.838 18.4154 Q927.638 17.4027 924.884 17.4027 Q920.63 17.4027 917.957 19.6712 Q915.323 21.8992 915.323 25.464 Q915.323 27.5299 916.498 29.6364 Q917.714 31.7024 921.4 35.5102 Z" fill="#000000" fill-rule="nonzero" fill-opacity="1" /><path clip-path="url(#clip130)" d="M1010.32 72.576 L987.227 12.096 L995.774 12.096 L1014.94 63.0159 L1034.14 12.096 L1042.64 12.096 L1019.59 72.576 L1010.32 72.576 Z" fill="#000000" fill-rule="nonzero" fill-opacity="1" /><path clip-path="url(#clip130)" d="M1065.33 49.7694 Q1056.29 49.7694 1052.81 51.8354 Q1049.33 53.9013 1049.33 58.8839 Q1049.33 62.8538 1051.92 65.2034 Q1054.55 67.5124 1059.05 67.5124 Q1065.25 67.5124 1068.97 63.1374 Q1072.74 58.7219 1072.74 51.4303 L1072.74 49.7694 L1065.33 49.7694 M1080.2 46.6907 L1080.2 72.576 L1072.74 72.576 L1072.74 65.6895 Q1070.19 69.8214 1066.38 71.8063 Q1062.57 73.7508 1057.06 73.7508 Q1050.1 73.7508 1045.97 69.8619 Q1041.87 65.9325 1041.87 59.3701 Q1041.87 51.7138 1046.98 47.825 Q1052.12 43.9361 1062.29 43.9361 L1072.74 43.9361 L1072.74 43.2069 Q1072.74 38.0623 1069.34 35.2672 Q1065.98 32.4315 1059.86 32.4315 Q1055.97 32.4315 1052.28 33.3632 Q1048.6 34.295 1045.2 36.1584 L1045.2 29.2718 Q1049.29 27.692 1053.14 26.9223 Q1056.98 26.1121 1060.63 26.1121 Q1070.47 26.1121 1075.33 31.2163 Q1080.2 36.3204 1080.2 46.6907 Z" fill="#000000" fill-rule="nonzero" fill-opacity="1" /><path clip-path="url(#clip130)" d="M1121.84 34.1734 Q1120.58 33.4443 1119.08 33.1202 Q1117.63 32.7556 1115.84 32.7556 Q1109.52 32.7556 1106.12 36.8875 Q1102.76 40.9789 1102.76 48.6757 L1102.76 72.576 L1095.26 72.576 L1095.26 27.2059 L1102.76 27.2059 L1102.76 34.2544 Q1105.11 30.1225 1108.88 28.1376 Q1112.64 26.1121 1118.03 26.1121 Q1118.8 26.1121 1119.73 26.2337 Q1120.66 26.3147 1121.8 26.5172 L1121.84 34.1734 Z" fill="#000000" fill-rule="nonzero" fill-opacity="1" /><path clip-path="url(#clip130)" d="M1129.66 27.2059 L1137.11 27.2059 L1137.11 72.576 L1129.66 72.576 L1129.66 27.2059 M1129.66 9.54393 L1137.11 9.54393 L1137.11 18.9825 L1129.66 18.9825 L1129.66 9.54393 Z" fill="#000000" fill-rule="nonzero" fill-opacity="1" /><path clip-path="url(#clip130)" d="M1173.33 49.7694 Q1164.29 49.7694 1160.81 51.8354 Q1157.32 53.9013 1157.32 58.8839 Q1157.32 62.8538 1159.92 65.2034 Q1162.55 67.5124 1167.05 67.5124 Q1173.24 67.5124 1176.97 63.1374 Q1180.74 58.7219 1180.74 51.4303 L1180.74 49.7694 L1173.33 49.7694 M1188.19 46.6907 L1188.19 72.576 L1180.74 72.576 L1180.74 65.6895 Q1178.19 69.8214 1174.38 71.8063 Q1170.57 73.7508 1165.06 73.7508 Q1158.09 73.7508 1153.96 69.8619 Q1149.87 65.9325 1149.87 59.3701 Q1149.87 51.7138 1154.97 47.825 Q1160.12 43.9361 1170.29 43.9361 L1180.74 43.9361 L1180.74 43.2069 Q1180.74 38.0623 1177.34 35.2672 Q1173.97 32.4315 1167.86 32.4315 Q1163.97 32.4315 1160.28 33.3632 Q1156.6 34.295 1153.19 36.1584 L1153.19 29.2718 Q1157.28 27.692 1161.13 26.9223 Q1164.98 26.1121 1168.63 26.1121 Q1178.47 26.1121 1183.33 31.2163 Q1188.19 36.3204 1188.19 46.6907 Z" fill="#000000" fill-rule="nonzero" fill-opacity="1" /><path clip-path="url(#clip130)" d="M1241.26 45.1919 L1241.26 72.576 L1233.81 72.576 L1233.81 45.4349 Q1233.81 38.994 1231.29 35.7938 Q1228.78 32.5936 1223.76 32.5936 Q1217.72 32.5936 1214.24 36.4419 Q1210.76 40.2903 1210.76 46.9338 L1210.76 72.576 L1203.26 72.576 L1203.26 27.2059 L1210.76 27.2059 L1210.76 34.2544 Q1213.43 30.163 1217.03 28.1376 Q1220.68 26.1121 1225.42 26.1121 Q1233.24 26.1121 1237.25 30.9732 Q1241.26 35.7938 1241.26 45.1919 Z" fill="#000000" fill-rule="nonzero" fill-opacity="1" /><path clip-path="url(#clip130)" d="M1288.78 28.9478 L1288.78 35.9153 Q1285.62 34.1734 1282.42 33.3227 Q1279.26 32.4315 1276.02 32.4315 Q1268.76 32.4315 1264.75 37.0496 Q1260.74 41.6271 1260.74 49.9314 Q1260.74 58.2358 1264.75 62.8538 Q1268.76 67.4314 1276.02 67.4314 Q1279.26 67.4314 1282.42 66.5807 Q1285.62 65.6895 1288.78 63.9476 L1288.78 70.8341 Q1285.66 72.2924 1282.29 73.0216 Q1278.97 73.7508 1275.21 73.7508 Q1264.96 73.7508 1258.92 67.3098 Q1252.89 60.8689 1252.89 49.9314 Q1252.89 38.832 1258.96 32.472 Q1265.08 26.1121 1275.69 26.1121 Q1279.14 26.1121 1282.42 26.8413 Q1285.7 27.5299 1288.78 28.9478 Z" fill="#000000" fill-rule="nonzero" fill-opacity="1" /><path clip-path="url(#clip130)" d="M1340.55 48.0275 L1340.55 51.6733 L1306.28 51.6733 Q1306.76 59.3701 1310.89 63.421 Q1315.07 67.4314 1322.48 67.4314 Q1326.77 67.4314 1330.78 66.3781 Q1334.84 65.3249 1338.81 63.2184 L1338.81 70.267 Q1334.79 71.9684 1330.58 72.8596 Q1326.37 73.7508 1322.03 73.7508 Q1311.18 73.7508 1304.82 67.4314 Q1298.5 61.1119 1298.5 50.3365 Q1298.5 39.1965 1304.49 32.6746 Q1310.53 26.1121 1320.74 26.1121 Q1329.89 26.1121 1335.2 32.0264 Q1340.55 37.9003 1340.55 48.0275 M1333.09 45.84 Q1333.01 39.7232 1329.65 36.0774 Q1326.33 32.4315 1320.82 32.4315 Q1314.58 32.4315 1310.81 35.9558 Q1307.09 39.4801 1306.52 45.8805 L1333.09 45.84 Z" fill="#000000" fill-rule="nonzero" fill-opacity="1" /><path clip-path="url(#clip130)" d="M1399.77 49.7694 Q1390.74 49.7694 1387.25 51.8354 Q1383.77 53.9013 1383.77 58.8839 Q1383.77 62.8538 1386.36 65.2034 Q1389 67.5124 1393.49 67.5124 Q1399.69 67.5124 1403.42 63.1374 Q1407.18 58.7219 1407.18 51.4303 L1407.18 49.7694 L1399.77 49.7694 M1414.64 46.6907 L1414.64 72.576 L1407.18 72.576 L1407.18 65.6895 Q1404.63 69.8214 1400.82 71.8063 Q1397.02 73.7508 1391.51 73.7508 Q1384.54 73.7508 1380.41 69.8619 Q1376.32 65.9325 1376.32 59.3701 Q1376.32 51.7138 1381.42 47.825 Q1386.57 43.9361 1396.73 43.9361 L1407.18 43.9361 L1407.18 43.2069 Q1407.18 38.0623 1403.78 35.2672 Q1400.42 32.4315 1394.3 32.4315 Q1390.41 32.4315 1386.73 33.3632 Q1383.04 34.295 1379.64 36.1584 L1379.64 29.2718 Q1383.73 27.692 1387.58 26.9223 Q1391.43 26.1121 1395.07 26.1121 Q1404.92 26.1121 1409.78 31.2163 Q1414.64 36.3204 1414.64 46.6907 Z" fill="#000000" fill-rule="nonzero" fill-opacity="1" /><path clip-path="url(#clip130)" d="M1452.96 9.54393 L1452.96 15.7418 L1445.83 15.7418 Q1441.82 15.7418 1440.24 17.3622 Q1438.7 18.9825 1438.7 23.1955 L1438.7 27.2059 L1450.97 27.2059 L1450.97 32.9987 L1438.7 32.9987 L1438.7 72.576 L1431.21 72.576 L1431.21 32.9987 L1424.08 32.9987 L1424.08 27.2059 L1431.21 27.2059 L1431.21 24.0462 Q1431.21 16.471 1434.73 13.0277 Q1438.25 9.54393 1445.91 9.54393 L1452.96 9.54393 Z" fill="#000000" fill-rule="nonzero" fill-opacity="1" /><path clip-path="url(#clip130)" d="M1465.11 14.324 L1465.11 27.2059 L1480.47 27.2059 L1480.47 32.9987 L1465.11 32.9987 L1465.11 57.6282 Q1465.11 63.1779 1466.61 64.7578 Q1468.15 66.3376 1472.81 66.3376 L1480.47 66.3376 L1480.47 72.576 L1472.81 72.576 Q1464.18 72.576 1460.9 69.3758 Q1457.62 66.1351 1457.62 57.6282 L1457.62 32.9987 L1452.15 32.9987 L1452.15 27.2059 L1457.62 27.2059 L1457.62 14.324 L1465.11 14.324 Z" fill="#000000" fill-rule="nonzero" fill-opacity="1" /><path clip-path="url(#clip130)" d="M1529.08 48.0275 L1529.08 51.6733 L1494.81 51.6733 Q1495.29 59.3701 1499.42 63.421 Q1503.6 67.4314 1511.01 67.4314 Q1515.3 67.4314 1519.31 66.3781 Q1523.36 65.3249 1527.33 63.2184 L1527.33 70.267 Q1523.32 71.9684 1519.11 72.8596 Q1514.9 73.7508 1510.56 73.7508 Q1499.71 73.7508 1493.35 67.4314 Q1487.03 61.1119 1487.03 50.3365 Q1487.03 39.1965 1493.02 32.6746 Q1499.06 26.1121 1509.27 26.1121 Q1518.42 26.1121 1523.73 32.0264 Q1529.08 37.9003 1529.08 48.0275 M1521.62 45.84 Q1521.54 39.7232 1518.18 36.0774 Q1514.86 32.4315 1509.35 32.4315 Q1503.11 32.4315 1499.34 35.9558 Q1495.62 39.4801 1495.05 45.8805 L1521.62 45.84 Z" fill="#000000" fill-rule="nonzero" fill-opacity="1" /><path clip-path="url(#clip130)" d="M1567.6 34.1734 Q1566.34 33.4443 1564.85 33.1202 Q1563.39 32.7556 1561.6 32.7556 Q1555.29 32.7556 1551.88 36.8875 Q1548.52 40.9789 1548.52 48.6757 L1548.52 72.576 L1541.03 72.576 L1541.03 27.2059 L1548.52 27.2059 L1548.52 34.2544 Q1550.87 30.1225 1554.64 28.1376 Q1558.4 26.1121 1563.79 26.1121 Q1564.56 26.1121 1565.49 26.2337 Q1566.43 26.3147 1567.56 26.5172 L1567.6 34.1734 Z" fill="#000000" fill-rule="nonzero" fill-opacity="1" /><path clip-path="url(#clip130)" d="M1628.08 34.1734 Q1626.82 33.4443 1625.33 33.1202 Q1623.87 32.7556 1622.08 32.7556 Q1615.77 32.7556 1612.36 36.8875 Q1609 40.9789 1609 48.6757 L1609 72.576 L1601.51 72.576 L1601.51 27.2059 L1609 27.2059 L1609 34.2544 Q1611.35 30.1225 1615.12 28.1376 Q1618.88 26.1121 1624.27 26.1121 Q1625.04 26.1121 1625.97 26.2337 Q1626.91 26.3147 1628.04 26.5172 L1628.08 34.1734 Z" fill="#000000" fill-rule="nonzero" fill-opacity="1" /><path clip-path="url(#clip130)" d="M1672.88 48.0275 L1672.88 51.6733 L1638.61 51.6733 Q1639.1 59.3701 1643.23 63.421 Q1647.4 67.4314 1654.82 67.4314 Q1659.11 67.4314 1663.12 66.3781 Q1667.17 65.3249 1671.14 63.2184 L1671.14 70.267 Q1667.13 71.9684 1662.92 72.8596 Q1658.7 73.7508 1654.37 73.7508 Q1643.51 73.7508 1637.15 67.4314 Q1630.83 61.1119 1630.83 50.3365 Q1630.83 39.1965 1636.83 32.6746 Q1642.87 26.1121 1653.07 26.1121 Q1662.23 26.1121 1667.54 32.0264 Q1672.88 37.9003 1672.88 48.0275 M1665.43 45.84 Q1665.35 39.7232 1661.99 36.0774 Q1658.66 32.4315 1653.16 32.4315 Q1646.92 32.4315 1643.15 35.9558 Q1639.42 39.4801 1638.86 45.8805 L1665.43 45.84 Z" fill="#000000" fill-rule="nonzero" fill-opacity="1" /><path clip-path="url(#clip130)" d="M1689.57 49.9314 Q1689.57 58.1548 1692.94 62.8538 Q1696.34 67.5124 1702.25 67.5124 Q1708.17 67.5124 1711.57 62.8538 Q1714.97 58.1548 1714.97 49.9314 Q1714.97 41.7081 1711.57 37.0496 Q1708.17 32.3505 1702.25 32.3505 Q1696.34 32.3505 1692.94 37.0496 Q1689.57 41.7081 1689.57 49.9314 M1714.97 65.7705 Q1712.62 69.8214 1709.02 71.8063 Q1705.45 73.7508 1700.43 73.7508 Q1692.21 73.7508 1687.02 67.1883 Q1681.88 60.6258 1681.88 49.9314 Q1681.88 39.2371 1687.02 32.6746 Q1692.21 26.1121 1700.43 26.1121 Q1705.45 26.1121 1709.02 28.0971 Q1712.62 30.0415 1714.97 34.0924 L1714.97 27.2059 L1722.43 27.2059 L1722.43 89.8329 L1714.97 89.8329 L1714.97 65.7705 Z" fill="#000000" fill-rule="nonzero" fill-opacity="1" /><path clip-path="url(#clip130)" d="M1737.01 54.671 L1737.01 27.2059 L1744.46 27.2059 L1744.46 54.3874 Q1744.46 60.8284 1746.97 64.0691 Q1749.49 67.2693 1754.51 67.2693 Q1760.54 67.2693 1764.03 63.421 Q1767.55 59.5726 1767.55 52.9291 L1767.55 27.2059 L1775.01 27.2059 L1775.01 72.576 L1767.55 72.576 L1767.55 65.6084 Q1764.84 69.7404 1761.23 71.7658 Q1757.67 73.7508 1752.93 73.7508 Q1745.11 73.7508 1741.06 68.8897 Q1737.01 64.0286 1737.01 54.671 M1755.76 26.1121 L1755.76 26.1121 Z" fill="#000000" fill-rule="nonzero" fill-opacity="1" /><path clip-path="url(#clip130)" d="M1810.98 49.7694 Q1801.94 49.7694 1798.46 51.8354 Q1794.98 53.9013 1794.98 58.8839 Q1794.98 62.8538 1797.57 65.2034 Q1800.2 67.5124 1804.7 67.5124 Q1810.9 67.5124 1814.62 63.1374 Q1818.39 58.7219 1818.39 51.4303 L1818.39 49.7694 L1810.98 49.7694 M1825.85 46.6907 L1825.85 72.576 L1818.39 72.576 L1818.39 65.6895 Q1815.84 69.8214 1812.03 71.8063 Q1808.22 73.7508 1802.71 73.7508 Q1795.75 73.7508 1791.62 69.8619 Q1787.52 65.9325 1787.52 59.3701 Q1787.52 51.7138 1792.63 47.825 Q1797.77 43.9361 1807.94 43.9361 L1818.39 43.9361 L1818.39 43.2069 Q1818.39 38.0623 1814.99 35.2672 Q1811.63 32.4315 1805.51 32.4315 Q1801.62 32.4315 1797.93 33.3632 Q1794.25 34.295 1790.85 36.1584 L1790.85 29.2718 Q1794.94 27.692 1798.79 26.9223 Q1802.63 26.1121 1806.28 26.1121 Q1816.12 26.1121 1820.98 31.2163 Q1825.85 36.3204 1825.85 46.6907 Z" fill="#000000" fill-rule="nonzero" fill-opacity="1" /><path clip-path="url(#clip130)" d="M1878.91 45.1919 L1878.91 72.576 L1871.46 72.576 L1871.46 45.4349 Q1871.46 38.994 1868.95 35.7938 Q1866.44 32.5936 1861.41 32.5936 Q1855.38 32.5936 1851.89 36.4419 Q1848.41 40.2903 1848.41 46.9338 L1848.41 72.576 L1840.91 72.576 L1840.91 27.2059 L1848.41 27.2059 L1848.41 34.2544 Q1851.08 30.163 1854.69 28.1376 Q1858.33 26.1121 1863.07 26.1121 Q1870.89 26.1121 1874.9 30.9732 Q1878.91 35.7938 1878.91 45.1919 Z" fill="#000000" fill-rule="nonzero" fill-opacity="1" /><path clip-path="url(#clip130)" d="M1901.15 14.324 L1901.15 27.2059 L1916.5 27.2059 L1916.5 32.9987 L1901.15 32.9987 L1901.15 57.6282 Q1901.15 63.1779 1902.65 64.7578 Q1904.19 66.3376 1908.85 66.3376 L1916.5 66.3376 L1916.5 72.576 L1908.85 72.576 Q1900.22 72.576 1896.94 69.3758 Q1893.66 66.1351 1893.66 57.6282 L1893.66 32.9987 L1888.19 32.9987 L1888.19 27.2059 L1893.66 27.2059 L1893.66 14.324 L1901.15 14.324 Z" fill="#000000" fill-rule="nonzero" fill-opacity="1" /><path clip-path="url(#clip130)" d="M1926.31 27.2059 L1933.76 27.2059 L1933.76 72.576 L1926.31 72.576 L1926.31 27.2059 M1926.31 9.54393 L1933.76 9.54393 L1933.76 18.9825 L1926.31 18.9825 L1926.31 9.54393 Z" fill="#000000" fill-rule="nonzero" fill-opacity="1" /><path clip-path="url(#clip130)" d="M1946.12 27.2059 L1981.52 27.2059 L1981.52 34.0114 L1953.49 66.6212 L1981.52 66.6212 L1981.52 72.576 L1945.1 72.576 L1945.1 65.7705 L1973.14 33.1607 L1946.12 33.1607 L1946.12 27.2059 Z" fill="#000000" fill-rule="nonzero" fill-opacity="1" /><path clip-path="url(#clip130)" d="M2013.52 49.7694 Q2004.49 49.7694 2001.01 51.8354 Q1997.52 53.9013 1997.52 58.8839 Q1997.52 62.8538 2000.12 65.2034 Q2002.75 67.5124 2007.24 67.5124 Q2013.44 67.5124 2017.17 63.1374 Q2020.94 58.7219 2020.94 51.4303 L2020.94 49.7694 L2013.52 49.7694 M2028.39 46.6907 L2028.39 72.576 L2020.94 72.576 L2020.94 65.6895 Q2018.38 69.8214 2014.58 71.8063 Q2010.77 73.7508 2005.26 73.7508 Q1998.29 73.7508 1994.16 69.8619 Q1990.07 65.9325 1990.07 59.3701 Q1990.07 51.7138 1995.17 47.825 Q2000.32 43.9361 2010.49 43.9361 L2020.94 43.9361 L2020.94 43.2069 Q2020.94 38.0623 2017.53 35.2672 Q2014.17 32.4315 2008.05 32.4315 Q2004.17 32.4315 2000.48 33.3632 Q1996.79 34.295 1993.39 36.1584 L1993.39 29.2718 Q1997.48 27.692 2001.33 26.9223 Q2005.18 26.1121 2008.82 26.1121 Q2018.67 26.1121 2023.53 31.2163 Q2028.39 36.3204 2028.39 46.6907 Z" fill="#000000" fill-rule="nonzero" fill-opacity="1" /><path clip-path="url(#clip130)" d="M2051.12 14.324 L2051.12 27.2059 L2066.47 27.2059 L2066.47 32.9987 L2051.12 32.9987 L2051.12 57.6282 Q2051.12 63.1779 2052.61 64.7578 Q2054.15 66.3376 2058.81 66.3376 L2066.47 66.3376 L2066.47 72.576 L2058.81 72.576 Q2050.18 72.576 2046.9 69.3758 Q2043.62 66.1351 2043.62 57.6282 L2043.62 32.9987 L2038.15 32.9987 L2038.15 27.2059 L2043.62 27.2059 L2043.62 14.324 L2051.12 14.324 Z" fill="#000000" fill-rule="nonzero" fill-opacity="1" /><path clip-path="url(#clip130)" d="M2076.27 27.2059 L2083.73 27.2059 L2083.73 72.576 L2076.27 72.576 L2076.27 27.2059 M2076.27 9.54393 L2083.73 9.54393 L2083.73 18.9825 L2076.27 18.9825 L2076.27 9.54393 Z" fill="#000000" fill-rule="nonzero" fill-opacity="1" /><path clip-path="url(#clip130)" d="M2116.9 32.4315 Q2110.91 32.4315 2107.42 37.1306 Q2103.94 41.7891 2103.94 49.9314 Q2103.94 58.0738 2107.38 62.7728 Q2110.87 67.4314 2116.9 67.4314 Q2122.86 67.4314 2126.34 62.7323 Q2129.83 58.0333 2129.83 49.9314 Q2129.83 41.8701 2126.34 37.1711 Q2122.86 32.4315 2116.9 32.4315 M2116.9 26.1121 Q2126.62 26.1121 2132.17 32.4315 Q2137.72 38.7509 2137.72 49.9314 Q2137.72 61.0714 2132.17 67.4314 Q2126.62 73.7508 2116.9 73.7508 Q2107.14 73.7508 2101.59 67.4314 Q2096.08 61.0714 2096.08 49.9314 Q2096.08 38.7509 2101.59 32.4315 Q2107.14 26.1121 2116.9 26.1121 Z" fill="#000000" fill-rule="nonzero" fill-opacity="1" /><path clip-path="url(#clip130)" d="M2187.79 45.1919 L2187.79 72.576 L2180.34 72.576 L2180.34 45.4349 Q2180.34 38.994 2177.83 35.7938 Q2175.32 32.5936 2170.29 32.5936 Q2164.26 32.5936 2160.77 36.4419 Q2157.29 40.2903 2157.29 46.9338 L2157.29 72.576 L2149.8 72.576 L2149.8 27.2059 L2157.29 27.2059 L2157.29 34.2544 Q2159.96 30.163 2163.57 28.1376 Q2167.21 26.1121 2171.95 26.1121 Q2179.77 26.1121 2183.78 30.9732 Q2187.79 35.7938 2187.79 45.1919 Z" fill="#000000" fill-rule="nonzero" fill-opacity="1" /><polyline clip-path="url(#clip132)" style="stroke:#0000ff; stroke-linecap:round; stroke-linejoin:round; stroke-width:4; stroke-opacity:1; fill:none" points="316.984,337.797 646.397,204.641 839.091,179.983 975.81,171.353 1081.86,167.358 1168.5,165.188 1241.76,163.88 1305.22,163.03 1361.2,162.448 1411.27,162.032 1456.57,161.724 1497.92,161.489 1535.96,161.307 1571.18,161.162 1603.96,161.045 1634.64,160.95 1663.45,160.871 1690.61,160.804 1716.31,160.748 1740.68,160.7 1763.87,160.659 1785.98,160.623 1807.1,160.592 1827.33,160.565 1846.73,160.54 1865.37,160.519 1883.31,160.5 1900.59,160.483 1917.27,160.467 1933.38,160.454 1948.96,160.441 1964.05,160.43 1978.67,160.419 1992.86,160.41 2006.64,160.401 2020.02,160.393 2033.05,160.386 2045.72,160.379 2058.06,160.373 2070.1,160.367 2081.83,160.362 2093.28,160.357 2104.47,160.352 2115.39,160.348 2126.07,160.344 2136.52,160.34 2146.74,160.337 2156.74,160.333 2166.54,160.33 2176.14,160.327 2185.55,160.325 2194.78,160.322 2203.84,160.32 2212.72,160.317 2221.44,160.315 2230,160.313 2238.41,160.311 2246.68,160.309 2254.8,160.307 2262.79,160.306 2270.65,160.304 2278.37,160.302 2285.98,160.301 2293.46,160.3 "/>
<polyline clip-path="url(#clip132)" style="stroke:#ff0000; stroke-linecap:round; stroke-linejoin:round; stroke-width:4; stroke-opacity:1; fill:none" points="316.984,337.797 646.397,870.418 839.091,1047.96 975.81,1136.73 1081.86,1189.99 1168.5,1225.5 1241.76,1250.86 1305.22,1269.88 1361.2,1284.68 1411.27,1296.52 1456.57,1306.2 1497.92,1314.27 1535.96,1321.1 1571.18,1326.95 1603.96,1332.02 1634.64,1336.46 1663.45,1340.38 1690.61,1343.86 1716.31,1346.97 1740.68,1349.78 1763.87,1352.31 1785.98,1354.62 1807.1,1356.73 1827.33,1358.65 1846.73,1360.43 1865.37,1362.07 1883.31,1363.59 1900.59,1365 1917.27,1366.31 1933.38,1367.53 1948.96,1368.68 1964.05,1369.75 1978.67,1370.76 1992.86,1371.71 2006.64,1372.6 2020.02,1373.45 2033.05,1374.25 2045.72,1375.01 2058.06,1375.73 2070.1,1376.41 2081.83,1377.06 2093.28,1377.68 2104.47,1378.27 2115.39,1378.83 2126.07,1379.37 2136.52,1379.88 2146.74,1380.38 2156.74,1380.85 2166.54,1381.3 2176.14,1381.74 2185.55,1382.15 2194.78,1382.55 2203.84,1382.94 2212.72,1383.31 2221.44,1383.67 2230,1384.02 2238.41,1384.35 2246.68,1384.67 2254.8,1384.99 2262.79,1385.29 2270.65,1385.58 2278.37,1385.86 2285.98,1386.13 2293.46,1386.4 "/>
<circle clip-path="url(#clip132)" cx="316.984" cy="337.797" r="14.4" fill="#0000ff" fill-rule="evenodd" fill-opacity="1" stroke="#000000" stroke-opacity="1" stroke-width="3.2"/>
<circle clip-path="url(#clip132)" cx="646.397" cy="204.641" r="14.4" fill="#0000ff" fill-rule="evenodd" fill-opacity="1" stroke="#000000" stroke-opacity="1" stroke-width="3.2"/>
<circle clip-path="url(#clip132)" cx="975.81" cy="171.353" r="14.4" fill="#0000ff" fill-rule="evenodd" fill-opacity="1" stroke="#000000" stroke-opacity="1" stroke-width="3.2"/>
<circle clip-path="url(#clip132)" cx="1305.22" cy="163.03" r="14.4" fill="#0000ff" fill-rule="evenodd" fill-opacity="1" stroke="#000000" stroke-opacity="1" stroke-width="3.2"/>
<circle clip-path="url(#clip132)" cx="1634.64" cy="160.95" r="14.4" fill="#0000ff" fill-rule="evenodd" fill-opacity="1" stroke="#000000" stroke-opacity="1" stroke-width="3.2"/>
<circle clip-path="url(#clip132)" cx="1964.05" cy="160.43" r="14.4" fill="#0000ff" fill-rule="evenodd" fill-opacity="1" stroke="#000000" stroke-opacity="1" stroke-width="3.2"/>
<circle clip-path="url(#clip132)" cx="2293.46" cy="160.3" r="14.4" fill="#0000ff" fill-rule="evenodd" fill-opacity="1" stroke="#000000" stroke-opacity="1" stroke-width="3.2"/>
<circle clip-path="url(#clip132)" cx="316.984" cy="337.797" r="14.4" fill="#ff0000" fill-rule="evenodd" fill-opacity="1" stroke="#000000" stroke-opacity="1" stroke-width="3.2"/>
<circle clip-path="url(#clip132)" cx="646.397" cy="870.418" r="14.4" fill="#ff0000" fill-rule="evenodd" fill-opacity="1" stroke="#000000" stroke-opacity="1" stroke-width="3.2"/>
<circle clip-path="url(#clip132)" cx="975.81" cy="1136.73" r="14.4" fill="#ff0000" fill-rule="evenodd" fill-opacity="1" stroke="#000000" stroke-opacity="1" stroke-width="3.2"/>
<circle clip-path="url(#clip132)" cx="1305.22" cy="1269.88" r="14.4" fill="#ff0000" fill-rule="evenodd" fill-opacity="1" stroke="#000000" stroke-opacity="1" stroke-width="3.2"/>
<circle clip-path="url(#clip132)" cx="1634.64" cy="1336.46" r="14.4" fill="#ff0000" fill-rule="evenodd" fill-opacity="1" stroke="#000000" stroke-opacity="1" stroke-width="3.2"/>
<circle clip-path="url(#clip132)" cx="1964.05" cy="1369.75" r="14.4" fill="#ff0000" fill-rule="evenodd" fill-opacity="1" stroke="#000000" stroke-opacity="1" stroke-width="3.2"/>
<circle clip-path="url(#clip132)" cx="2293.46" cy="1386.4" r="14.4" fill="#ff0000" fill-rule="evenodd" fill-opacity="1" stroke="#000000" stroke-opacity="1" stroke-width="3.2"/>
<polyline clip-path="url(#clip132)" style="stroke:#ac8d18; stroke-linecap:round; stroke-linejoin:round; stroke-width:4; stroke-opacity:1; fill:none" points="316.984,337.797 646.397,249.027 839.091,219.436 975.81,204.641 1081.86,195.764 1168.5,189.846 1241.76,185.619 1305.22,182.449 1361.2,179.983 1411.27,178.01 1456.57,176.396 1497.92,175.051 1535.96,173.913 1571.18,172.938 1603.96,172.092 1634.64,171.353 1663.45,170.7 1690.61,170.12 1716.31,169.601 1740.68,169.133 1763.87,168.711 1785.98,168.326 1807.1,167.975 1827.33,167.654 1846.73,167.358 1865.37,167.085 1883.31,166.832 1900.59,166.597 1917.27,166.378 1933.38,166.174 1948.96,165.983 1964.05,165.804 1978.67,165.636 1992.86,165.478 2006.64,165.329 2020.02,165.188 2033.05,165.055 2045.72,164.928 2058.06,164.809 2070.1,164.695 2081.83,164.587 2093.28,164.483 2104.47,164.385 2115.39,164.291 2126.07,164.202 2136.52,164.116 2146.74,164.034 2156.74,163.955 2166.54,163.88 2176.14,163.807 2185.55,163.737 2194.78,163.671 2203.84,163.606 2212.72,163.544 2221.44,163.484 2230,163.427 2238.41,163.371 2246.68,163.317 2254.8,163.265 2262.79,163.215 2270.65,163.167 2278.37,163.12 2285.98,163.074 2293.46,163.03 "/>
<polyline clip-path="url(#clip132)" style="stroke:#00a9ad; stroke-linecap:round; stroke-linejoin:round; stroke-width:4; stroke-opacity:1; fill:none" points="316.984,160.256 646.397,160.256 839.091,160.256 975.81,160.256 1081.86,160.256 1168.5,160.256 1241.76,160.256 1305.22,160.256 1361.2,160.256 1411.27,160.256 1456.57,160.256 1497.92,160.256 1535.96,160.256 1571.18,160.256 1603.96,160.256 1634.64,160.256 1663.45,160.256 1690.61,160.256 1716.31,160.256 1740.68,160.256 1763.87,160.256 1785.98,160.256 1807.1,160.256 1827.33,160.256 1846.73,160.256 1865.37,160.256 1883.31,160.256 1900.59,160.256 1917.27,160.256 1933.38,160.256 1948.96,160.256 1964.05,160.256 1978.67,160.256 1992.86,160.256 2006.64,160.256 2020.02,160.256 2033.05,160.256 2045.72,160.256 2058.06,160.256 2070.1,160.256 2081.83,160.256 2093.28,160.256 2104.47,160.256 2115.39,160.256 2126.07,160.256 2136.52,160.256 2146.74,160.256 2156.74,160.256 2166.54,160.256 2176.14,160.256 2185.55,160.256 2194.78,160.256 2203.84,160.256 2212.72,160.256 2221.44,160.256 2230,160.256 2238.41,160.256 2246.68,160.256 2254.8,160.256 2262.79,160.256 2270.65,160.256 2278.37,160.256 2285.98,160.256 2293.46,160.256 "/>
<path clip-path="url(#clip130)" d="M1947.3 868.49 L2282.92 868.49 L2282.92 712.97 L1947.3 712.97  Z" fill="#ffffff" fill-rule="evenodd" fill-opacity="1"/>
<polyline clip-path="url(#clip130)" style="stroke:#000000; stroke-linecap:round; stroke-linejoin:round; stroke-width:4; stroke-opacity:1; fill:none" points="1947.3,868.49 2282.92,868.49 2282.92,712.97 1947.3,712.97 1947.3,868.49 "/>
<circle clip-path="url(#clip130)" cx="2040.42" cy="764.81" r="20.48" fill="#0000ff" fill-rule="evenodd" fill-opacity="1" stroke="#000000" stroke-opacity="1" stroke-width="4.55111"/>
<path clip-path="url(#clip130)" d="M2133.53 756.164 L2138.05 756.164 L2146.15 777.923 L2154.25 756.164 L2158.76 756.164 L2149.04 782.09 L2143.25 782.09 L2133.53 756.164 Z" fill="#000000" fill-rule="nonzero" fill-opacity="1" /><path clip-path="url(#clip130)" d="M2176.42 769.057 Q2171.26 769.057 2169.27 770.238 Q2167.28 771.418 2167.28 774.266 Q2167.28 776.534 2168.76 777.877 Q2170.27 779.196 2172.84 779.196 Q2176.38 779.196 2178.51 776.696 Q2180.66 774.173 2180.66 770.006 L2180.66 769.057 L2176.42 769.057 M2184.92 767.298 L2184.92 782.09 L2180.66 782.09 L2180.66 778.154 Q2179.2 780.516 2177.03 781.65 Q2174.85 782.761 2171.7 782.761 Q2167.72 782.761 2165.36 780.539 Q2163.02 778.293 2163.02 774.543 Q2163.02 770.168 2165.94 767.946 Q2168.88 765.724 2174.69 765.724 L2180.66 765.724 L2180.66 765.307 Q2180.66 762.367 2178.72 760.77 Q2176.8 759.15 2173.3 759.15 Q2171.08 759.15 2168.97 759.682 Q2166.86 760.215 2164.92 761.28 L2164.92 757.344 Q2167.26 756.442 2169.46 756.002 Q2171.66 755.539 2173.74 755.539 Q2179.36 755.539 2182.14 758.455 Q2184.92 761.372 2184.92 767.298 Z" fill="#000000" fill-rule="nonzero" fill-opacity="1" /><path clip-path="url(#clip130)" d="M2208.72 760.145 Q2208 759.729 2207.14 759.543 Q2206.31 759.335 2205.29 759.335 Q2201.68 759.335 2199.73 761.696 Q2197.81 764.034 2197.81 768.432 L2197.81 782.09 L2193.53 782.09 L2193.53 756.164 L2197.81 756.164 L2197.81 760.192 Q2199.16 757.83 2201.31 756.696 Q2203.46 755.539 2206.54 755.539 Q2206.98 755.539 2207.51 755.608 Q2208.04 755.655 2208.69 755.77 L2208.72 760.145 Z" fill="#000000" fill-rule="nonzero" fill-opacity="1" /><circle clip-path="url(#clip130)" cx="2040.42" cy="816.65" r="20.48" fill="#ff0000" fill-rule="evenodd" fill-opacity="1" stroke="#000000" stroke-opacity="1" stroke-width="4.55111"/>
<path clip-path="url(#clip130)" d="M2153.88 812.981 Q2155.48 810.11 2157.7 808.745 Q2159.92 807.379 2162.93 807.379 Q2166.98 807.379 2169.18 810.226 Q2171.38 813.05 2171.38 818.282 L2171.38 833.93 L2167.1 833.93 L2167.1 818.42 Q2167.1 814.694 2165.78 812.888 Q2164.46 811.082 2161.75 811.082 Q2158.44 811.082 2156.52 813.282 Q2154.6 815.481 2154.6 819.277 L2154.6 833.93 L2150.31 833.93 L2150.31 818.42 Q2150.31 814.67 2148.99 812.888 Q2147.67 811.082 2144.92 811.082 Q2141.66 811.082 2139.74 813.305 Q2137.81 815.504 2137.81 819.277 L2137.81 833.93 L2133.53 833.93 L2133.53 808.004 L2137.81 808.004 L2137.81 812.032 Q2139.27 809.647 2141.31 808.513 Q2143.35 807.379 2146.15 807.379 Q2148.97 807.379 2150.94 808.814 Q2152.93 810.249 2153.88 812.981 Z" fill="#000000" fill-rule="nonzero" fill-opacity="1" /><path clip-path="url(#clip130)" d="M2202.05 819.902 L2202.05 821.985 L2182.47 821.985 Q2182.74 826.383 2185.11 828.698 Q2187.49 830.99 2191.73 830.99 Q2194.18 830.99 2196.47 830.388 Q2198.79 829.786 2201.05 828.582 L2201.05 832.61 Q2198.76 833.582 2196.36 834.092 Q2193.95 834.601 2191.47 834.601 Q2185.27 834.601 2181.63 830.99 Q2178.02 827.379 2178.02 821.221 Q2178.02 814.856 2181.45 811.129 Q2184.9 807.379 2190.73 807.379 Q2195.96 807.379 2198.99 810.758 Q2202.05 814.115 2202.05 819.902 M2197.79 818.652 Q2197.74 815.157 2195.82 813.073 Q2193.92 810.99 2190.78 810.99 Q2187.21 810.99 2185.06 813.004 Q2182.93 815.018 2182.61 818.675 L2197.79 818.652 Z" fill="#000000" fill-rule="nonzero" fill-opacity="1" /><path clip-path="url(#clip130)" d="M2220.82 820.897 Q2215.66 820.897 2213.67 822.078 Q2211.68 823.258 2211.68 826.106 Q2211.68 828.374 2213.16 829.717 Q2214.67 831.036 2217.23 831.036 Q2220.78 831.036 2222.91 828.536 Q2225.06 826.013 2225.06 821.846 L2225.06 820.897 L2220.82 820.897 M2229.32 819.138 L2229.32 833.93 L2225.06 833.93 L2225.06 829.994 Q2223.6 832.356 2221.42 833.49 Q2219.25 834.601 2216.1 834.601 Q2212.12 834.601 2209.76 832.379 Q2207.42 830.133 2207.42 826.383 Q2207.42 822.008 2210.34 819.786 Q2213.28 817.564 2219.09 817.564 L2225.06 817.564 L2225.06 817.147 Q2225.06 814.207 2223.11 812.61 Q2221.19 810.99 2217.7 810.99 Q2215.48 810.99 2213.37 811.522 Q2211.26 812.055 2209.32 813.12 L2209.32 809.184 Q2211.66 808.282 2213.86 807.842 Q2216.05 807.379 2218.14 807.379 Q2223.76 807.379 2226.54 810.295 Q2229.32 813.212 2229.32 819.138 Z" fill="#000000" fill-rule="nonzero" fill-opacity="1" /><path clip-path="url(#clip130)" d="M2259.64 818.282 L2259.64 833.93 L2255.38 833.93 L2255.38 818.42 Q2255.38 814.74 2253.95 812.911 Q2252.51 811.082 2249.64 811.082 Q2246.19 811.082 2244.2 813.282 Q2242.21 815.481 2242.21 819.277 L2242.21 833.93 L2237.93 833.93 L2237.93 808.004 L2242.21 808.004 L2242.21 812.032 Q2243.74 809.694 2245.8 808.536 Q2247.88 807.379 2250.59 807.379 Q2255.06 807.379 2257.35 810.157 Q2259.64 812.911 2259.64 818.282 Z" fill="#000000" fill-rule="nonzero" fill-opacity="1" /></svg>
